<?xml version="1.0" encoding="utf-8"?>
<!-- Generator: Adobe Illustrator 25.0.1, SVG Export Plug-In . SVG Version: 6.00 Build 0)  -->
<svg version="1.1" id="씨발Dog" xmlns="http://www.w3.org/2000/svg" xmlns:xlink="http://www.w3.org/1999/xlink" x="0px" y="0px"
	 viewBox="0 0 2177.2 1889" style="enable-background:new 0 0 2177.2 1889;" xml:space="preserve">
<style type="text/css">
	.st0{fill:#E9D784;}
	.st1{fill:#E9D784;stroke:#000000;stroke-width:10;stroke-linejoin:bevel;stroke-miterlimit:10;}
	.st2{fill:#FFFFFF;}
	.st3{fill:#333333;}
</style>
<g id="body">
	<g>
		<path class="st0" d="M801.1,1895l0.4-5.4c0-0.4,0.1-0.9,0.1-1.3c0.1-0.7,0.1-1.4,0.1-2c-0.1-3.9-0.1-7.8-0.2-11.8
			c-0.2-7.5-0.3-15.2-0.3-22.9c0.2-29.9,0.5-57.7,1-85c0.2-13.5,0.6-27.2,1-40.5c0.2-5.2,0.3-10.4,0.5-15.6c0.2-5.5,0.3-11,0.5-16.4
			c0.4-10.9,0.8-22.2,0.9-33.3c0.2-18.2,0.2-36.6,0.3-54.5c0-13.7,0.1-28,0.2-41.9c0.1-16.3-0.7-33.8-2.3-53.7
			c-0.3-3.8-0.8-7.8-1.3-11.5c-0.2-1.3-0.3-2.7-0.5-4c-0.1-0.8-0.2-1.7-0.4-2.5c-0.2-1.2-0.4-2.4-0.5-3.7
			c-1.4-13.9-3.9-27.4-6.2-38.8c-2.2-11-5-22.5-9-37.4c-6.4-23.7-14.1-44.2-23.4-62.7c-0.8-1.5-1.6-3.1-2.5-4.8
			c1,4.3,2.4,8.6,4.2,12.9c0.1,0.3,0.3,0.6,0.4,0.9c0.9,1.9,2.1,4.6,1.9,7.9l-0.2,2.6l-2.3,1.4c-0.1,0.1-0.3,0.2-0.4,0.3
			c-0.7,0.5-1.8,1.2-3.2,1.6l-1.4,0.4c-2.6,0.7-5.3,1.4-8.1,1.8c-6.4,0.8-12.7,1.9-18.8,3.3c-3.6,0.8-7.8,1.8-12.1,2.1
			c-2.6,0.2-4.7,0.9-6.6,2.2c-2.2,1.4-4.5,2.4-6.9,2.9c-8.1,1.7-16.3,3.6-24.3,5.3c-4.7,1-9.4,2.1-14.1,3.1
			c-6.7,1.5-13.4,3-20.1,4.5c-13.8,3.1-28.1,6.4-42.2,9.2c-2.9,0.6-5.9,1.2-8.8,1.8c-15.7,3.2-31.9,6.4-48.2,8.3
			c-2.4,0.3-4.8,0.7-7.4,1.1c-2.2,0.4-4.5,0.8-6.7,1.1c-7.7,1-15.3,1.9-22.5,2.7c-1.4,0.1-2.8,0.3-4.2,0.5c-6,0.7-12.3,1.3-18.5,1.6
			c-14.6,0.6-27.7,0.9-40,0.9c-3.9,0-7.8,0-11.6-0.1h-2.7c-8.4-0.1-17.1-0.2-25.8-1.7c-2.3-0.4-4.5-0.7-6.7-0.8
			c-17.5-1.4-34.8-4.5-51.4-9.1c-13.7-3.8-27.1-7.8-39.6-14.6c-8.5-4.6-16.9-9.2-25.3-14.1l-1.3-0.8c-4.5-2.6-9.2-5.3-13-9.5
			c-0.3-0.1-0.6-0.3-0.9-0.6c-0.6-0.5-1.3-1-1.9-1.4c-1.7-1.3-3.5-2.6-5.2-4.1c-3.1-2.8-6.1-5.6-9-8.4c-0.9-0.8-1.8-1.7-2.6-2.5
			c-25.5-24.3-47-52.5-65.8-86.4c-7.5-13.6-16.1-29.7-23-46.5c-1-2.4-1.9-4.7-2.9-7.1c-2.9-7-5.8-14.2-8.6-21.4l-0.5-1.4
			c-2.2-5.6-4.4-11.3-5.9-17.4c-0.6-2.4-1.4-4.8-2.2-7.3c-0.9-2.6-1.8-5.4-2.5-8.2c-0.2-0.7-0.3-1.4-0.5-2.1s-0.3-1.4-0.5-2.1v-0.2
			c-0.4-1.5-0.7-2.9-1.1-4.2c-0.4-1.2-0.8-2.4-1.2-3.6c-0.8-2.3-1.6-4.7-2.2-7.3l-1.5-6.3c-2.9-12.5-5.9-25.4-8.5-38.3
			c-2.5-12.5-5-26.1-7.4-41.7c-2.3-14.2-4.2-28.2-5.8-41.5c-1.4-12.1-2.7-24.4-4-36.2c-0.6-5.9-1.2-11.8-1.9-17.7
			c-0.6-5.8-1.3-11.6-1.9-17.4c-1.3-11.3-2.5-23.1-3.7-34.6l-0.1-1.2c-0.5-5.1-1.1-10.3-0.3-15.8c0.1-0.7,0.1-1.7-0.8-3.4l-0.5-0.9
			c-0.4-0.7-0.8-1.4-1.2-2.2c-7.2-13.8-15.2-30-18.2-48.4c-0.3-1.7-0.6-3.4-0.9-5.1c-1-5.8-2.1-11.7-2.2-17.9
			c-0.2-12.3-0.1-24.9-0.1-37v-7.7c0-4.9,0.8-9.7,2.3-14.3c4.1-12.5,8.4-22.4,13.4-31.3c3-5.2,6.2-9.5,9.8-12.9
			c3.6-3.5,7.4-5.9,11.5-7.3c3.5-1.2,6.7-1.8,9.8-1.8c4.3,0,8.3,1.1,12,3.3c4.5,2.7,7,6,7.5,10.1c0.4-3.6,0.7-7.3,1.1-10.9
			c0.4-3.4,0.8-7.4,1.4-11.2c2.3-14.2,6.4-28.9,12.4-45.2c2.9-7.8,6.6-15.1,11-21.5c1.3-2,3.2-4.5,5.5-6.7c3.1-2.9,7.2-4.5,11.6-4.5
			c6.3,0,12.1,3.3,15.2,8.5c1.3,2.3,2.5,4.6,3.6,6.9c0.8,1.6,1.6,3.2,2.4,4.7c5,9.2,8.2,19.4,9.9,31.2c1,6.7,1.8,13.4,2.6,20
			c0.4,3.2,0.8,6.4,1.2,9.6l0.3,2.6c0.8,6.5,1.6,12.7,3.5,18.6c1.1,3.3,0.4,6.5-2,8.9c-1,1.1-1.9,1.9-2.7,2.6
			c-1.6,1.5-3.3,2.9-4.9,4.4c-1.5,1.3-2.9,2.6-4.4,3.9c-1.4,1.2-2.6,2.4-3.4,3.6c0.2,0,0.5-0.1,0.9-0.4c2.7-1.9,4.8-3.6,6.7-5.3
			c1.7-1.6,3.5-3.2,5.1-4.8c2.3-2.2,4.7-4.5,7.2-6.7c5.7-4.9,11.6-7.6,18-8.5c2.2-0.3,4.6-0.4,6.9-0.4c3.1,0,6.2,0.2,9.7,0.7
			c10.3,1.4,18.2,5.3,24.1,11.7c0.5,0.5,1,1,1.5,1.5s1,1,1.5,1.5c2.3,2.5,4.9,5.6,6.2,9.9c0.5,1.5,1.2,3,2,4.7
			c0.4,0.9,0.9,1.8,1.3,2.7c0.3,0.6,0.6,1.3,0.9,1.9c0.9,2,1.8,4,2.7,6.2c2.2,5.5,2.9,11.3,2,17.1c-0.2,1.4-0.3,2.9-0.4,4.5
			c-0.1,0.6-0.1,1.3-0.2,1.9c-0.1,1.7-0.3,3.4-0.4,5.1c-0.3,3.4-0.6,6.9-0.9,10.3c-0.8,8.4-3.2,16.3-5.4,24l-0.6,2.1
			c-4.6,15.7-10.4,30.8-15.4,43.4c-1.3,3.2-2.3,6.5-3.4,9.9l-0.2,0.6c-0.2,0.6-0.3,1.4-0.3,2.1c0,0.7,0.5,1.4,1,1.9
			c0.1-0.5,0.2-0.9,0.3-1.4c0.6-3.9,1.8-7.9,3.8-12.2c1.4-4,4.4-4.6,6.1-4.7l3-0.1l1.5,2.6c0.2,0.3,0.3,0.6,0.5,0.9
			c0.4,0.7,0.9,1.6,1.4,2.5c4.4,8.4,8.8,16.9,13.2,25.3c11.6,22.2,23.5,45.3,35.2,67.9c7.9,15.4,18.3,35.7,28.3,56.2
			c10.8,22.1,20.2,44.3,27.2,61.2c1.3,3.1,2.6,7.3,1.7,12.1c3.1,1.8,4.7,4.6,5.7,7c0.7,1.5,1.5,3.3,2.2,5.1
			c3.2,8.5,6.4,17.1,9.6,25.6c0.4,1,1.1,1.8,1.8,2.3c-0.1-0.9-0.2-1.6-0.5-2.3c-1.5-4.5-3.3-9.1-5-13.5l-1.3-3.4
			c-1.2-3.2-2.5-6.5-3.7-9.7c-0.8-2.1-1.6-4.3-2.5-6.4c-1.5-3.9-0.4-7.7,3-10.1c0.7-0.5,1.4-1,2-1.5c0.7-0.6,1.4-1.1,2.2-1.6
			c7.6-5.5,15.5-10.3,22.9-14.7c5.4-3.2,10.7-6.8,15.9-10.2c6.1-4,12.4-8.2,18.9-11.9c6.8-4,13.7-8.2,20.3-12.3
			c6.6-4.1,13.4-8.3,20.2-12.3c15-8.8,31.2-17.6,49.6-26.9l2-1c21.2-10.7,43.1-21.8,65.7-30.8c2.8-1.1,5.6-2.2,8.4-3.4
			c10.6-4.3,21.5-8.7,32.7-12.2c8.6-2.7,17.4-5.7,25.9-8.7c2.7-0.9,5.4-1.9,8.1-2.8c1.1-0.4,2.1-0.6,3.2-0.6c2.5,0,4.7,1,6.5,2.9
			c1.5,1.7,2.8,3.5,4,5.1c6.3,9.3,13.3,16.8,21.4,22.9c0.5,0.4,1,0.8,1.5,1.2s0.9,0.8,1.4,1.1c2.4,1.8,4.1,3.9,5.2,6.6
			c0-0.3-0.1-0.6-0.1-1c-0.2-2.3-1-3.9-2.6-5.2c-0.9-0.7-1.8-1.5-2.6-2.2c-1.2-1-2.4-2-3.6-2.9c-6.2-4.8-11.2-9.8-15.5-15.3
			c-6.5-8.4-11-15.2-14.5-22c-8.5-16.8-14.8-32.9-19.2-49.1c-0.3-1.1-0.6-2.2-0.9-3.3c-0.8-2.9-1.5-5.7-2.4-8.3
			c-3-8.6-3.8-17.4-4.6-26c-0.1-1.2-0.2-2.3-0.3-3.5c-1-10.5-0.6-20.8,0-30.5c0.2-3.4,0.9-6.7,2.2-9.9c2.3-5.8,5.2-11.5,8.8-17.5
			c3.5-5.7,8.4-10.6,14.8-15.1l0.3-0.2c1.6-1.1,3.9-2.7,7.1-2.7c0.1,0,0.3,0,0.4,0l1.8,0.1l1.3,1.2c2.9,2.6,3,5.8,3.2,7.7
			c0,0.2,0,0.4,0,0.6c0.4,5.4,0.8,10.8,1.2,16.1c0.2,3.2,0.5,6.5,0.7,9.7l0.2,2.8c0.3,3.6,0.5,7.3,0.9,10.9c0.1,0.9,0.3,1.8,0.5,2.7
			c0-0.3,0-0.7,0-1.1l-0.1-2.3c-0.1-2.9-0.1-5.7-0.3-8.5c-0.3-4-0.6-7.9-0.9-11.9c-0.5-6.2-0.9-12.5-1.3-18.8
			c-0.7-12.8,0.1-25.3,2.3-37c0.7-3.5,1.5-7,2.2-10.4c0.5-2,0.9-4.1,1.4-6.2c0.2-1.2,0.5-2.3,0.7-3.5c1-4.9,1.9-10,4.4-14.9l0,0
			c0.1-0.4,0.2-1,0.4-1.7c0.5-1.3,1-2.7,1.5-4c1.4-3.7,2.8-7.6,4.4-11.4c1.8-4.2,4.4-7.8,7.8-10.7c3.7-3.2,7.7-4.8,11.9-4.8
			c2.5,0,5,0.6,7.6,1.7c5.9,2.6,10.2,6.6,12.8,12c1.9,3.8,3.9,8.3,5.5,13.1c0.5,1.6,1,3.3,1.5,4.9c3.5,11,7.1,22.3,9.3,34l0,0
			c1.4,2.9,1.9,5.7,2.3,8.3c0.2,1.2,0.4,2.3,0.7,3.4c1.9,7.2,1.5,9.3-3,14.6l-0.8,1c-3.9,4.6-6.1,9.8-6.8,15.6
			c-0.9,7.3-0.5,14.6-0.1,22.3l0.1,2.6c0,0.2,0,0.4,0.1,0.6c0.1,0.3,0.2,0.6,0.3,0.8c0-1.1,0.1-2.3,0.1-3.6c0-2.4,0-4.7,0-7.1
			c0-4.1,0-8.4,0.1-12.7c0.1-3,0.6-5.8,1.5-8.2c2.8-7.4,7.2-13.1,13.2-17.3c6.2-4.4,10.6-6.9,16.5-7.8c-3.4,0.1-5.8,0.7-8,1.9
			c-1.5,0.8-3,1.2-4.5,1.2c-1.9,0-5.5-0.7-7.8-5.8c-0.8-1.9-1.3-3.8-1.8-5.5l-0.1-0.3c-1-3.7-2-7.4-2.9-11
			c-1.9-7.2-3.8-14.6-5.9-21.7c-3.5-12.1-5.6-24.9-6.2-38c-0.2-4-0.5-8-0.9-11.7c0-0.3-0.1-0.6-0.1-0.9c-0.2,0.8-0.3,1.6-0.4,2.5
			c-0.1,1.4-0.1,2.8-0.1,4.3c0,1.1,0,2.2,0,3.2s-0.2,1.8-0.3,2.6c-0.1,0.3-0.1,0.7-0.2,1.1l-0.9,6.4l-6-2.5
			c-0.6-0.2-1.1-0.4-1.6-0.6c-1.2-0.5-2.3-0.9-3.5-1.5c-2.8-1.5-5.8-2.2-9.2-2.2c-0.8,0-1.6,0-2.4,0.1c-6.5,0.7-11.2,3.3-14.3,8.2
			c-1.3,2-2.4,4.1-3.5,6.2c-4.8,9.6-8.5,19.8-11,30.4c-3,12.4-5.2,24.9-6.7,37.2c-0.2,1.6-0.5,3.7-1.3,5.8c-1.4,3.7-4.3,5.9-7.7,5.9
			c-1.4,0-3.6-0.4-5.9-2.4c-4-3.4-6.5-7.1-7.8-11.2c-0.1-0.4-0.2-0.7-0.3-1.1c-0.4-1.2-0.7-2.3-1.1-3.1c-2.7-5.4-4.5-10.9-6.3-16.3
			c-0.5-1.6-1.1-3.2-1.6-4.9c-4.6-13.1-8-25.5-10.3-37.6l-0.2-0.9c-1.6-8-3.2-16.4-3.7-24.8c-0.8-13.5-1-24.6-0.4-35.1
			c0.9-16.9,4.8-33.7,11.7-50c10-23.7,24.3-45.7,42.5-65.5c5.6-6.1,11.6-12.1,17.4-17.8l3.2-3.2c10.8-10.8,22.5-20.8,33.9-30.4
			c8.7-7.4,16.4-12.8,24.2-17.2c1.4-0.8,3-1.8,4.8-3.2c-1.5-4.1-1.3-8.2-0.9-12c0.9-9.5,1.9-19.5,3.7-29.4
			c3.7-20.6,8.5-38.6,14.8-55c9.4-24.5,21.9-48.6,36.9-71.5c9.8-14.9,19.3-27.4,29-38c6.6-7.2,13.3-14.4,19-20.5
			c1.8-1.9,3.6-3.7,5.4-5.4c0.7-0.7,1.5-1.4,2.2-2.2c3.2-3.2,7.2-5,11.9-5.6c0.9-0.1,1.8-0.3,2.7-0.5c-1.2-0.9-2.2-1-2.9-1
			c-0.3,0-0.6,0-0.9,0.1c-2.2,0.3-4.2,1.2-5.8,2.5c-3,2.4-6.1,5.1-9,7.9c-10.4,10.2-20.4,21.2-30.6,33.7
			c-9.7,11.9-22.1,27.9-32.4,45.4c-4.7,8-8.7,16.6-12.6,25l-2.2,4.7c-4.4,9.5-9,19.3-12.8,29.1c-3.9,10-7.9,20.7-9.2,31.8
			c-0.1,0.9-0.3,1.9-0.7,3c-1.3,3.7-1.8,7.7-2.4,11.9c-0.1,0.7-0.6,4.6-0.8,5.8c-0.7,5.2-1.4,10.7-2.4,16c-0.9,4.7-1.4,8.6-1.7,12.2
			c-0.2,2.7-0.9,5.1-1.6,7.3l-0.1,0.3c-0.6,1.9-1.9,3.7-3.5,4.9c-2.9,2.1-6.1,4.3-10,6.9c-1.1,0.7-2.1,1-2.9,1.3
			c-0.2,0.1-0.5,0.2-0.8,0.3l-4.4,1.7l-1.9-4.3c-1.3-2.8-1.2-5.3-1.2-7.2c0-0.3,0-0.5,0-0.8c0-7,0.7-14.2,2.2-21.9
			c1-5.5,2.2-10.9,3.4-16.1c0.6-2.6,1.3-5.3,1.9-7.8c1-4,2-8.1,2.8-12.1c1.8-9.4,4.5-18.6,7-27.4l0.9-3.1
			c6.1-21.3,13.7-41.9,19.6-57.5c4-10.5,8.7-22.7,14.4-34.5c4.7-9.7,10.3-20.9,16.6-31.8c5.7-9.7,12.8-20.9,22.1-31.3
			c1.8-1.9,3.5-4,5.2-5.9l0.4-0.5c7.7-9,17-17.8,28.3-27.1c10.8-8.9,23-16.2,37.1-22.5c3.8-1.7,7.5-3.2,10.4-4.3
			c4.8-1.9,10.4-3.9,16.6-4.5c0.9-0.1,1.9-0.3,3-0.6c0.5-0.1,1-0.3,1.5-0.4c1.3-0.3,2.6-0.6,3.9-1c2.4-0.6,4.9-1.2,7.4-1.8
			c4.6-1,9.3-2.7,13.9-5.2c5.4-2.8,10.5-6.4,15.2-10.5c3.8-3.3,7.9-6.2,12.2-8.6c4.3-2.4,9-4.9,13.8-7.3c13.4-6.6,24.9-11,36.2-14
			c19.6-5.1,39.6-7.8,59.5-8h0.3c9.5-0.1,19.2-0.2,28.9-0.2c17.4,0,31.5,0.3,44.5,0.8c13.8,0.6,32.1,1.7,50.3,5
			c13.1,2.3,25.5,6.3,36.8,11.7c0.7,0.3,1.4,0.7,2.1,1.1l0.2,0.1c3.4,1.8,5,4.9,4.5,8.6c-0.1,0.4-0.1,0.7-0.1,1c0.2,0,0.5,0,0.7,0
			c1.1,0,2.3-0.3,3.7-0.9c9.9-4.4,17.9-6.4,25.9-6.6c8.1-0.2,15.3-0.3,22-0.3c2,0,4,0,6,0c6.3,0.1,12.4,1,18.4,2.7
			c18.1,5.3,33.9,14.3,47.1,26.7c9.6,9.1,18.8,18.8,27.4,28.9c27.1,31.6,52.2,65.6,77,103.7c24.3,37.5,47.3,79.5,70.3,128.4
			c4.5,9.6,9.5,21,12.5,33.7c4,16.7,5.9,30.8,6,44.3c0,1.4,0,2.7,0,4.1c0.1,7.6,0.1,15.4-0.5,23.2c-1,13-2.7,26.5-5.2,40
			c-2.3,12.5-4.9,25.9-9,38.9c-0.4,1.1-0.6,2.4-0.9,3.7c-0.5,2.3-1.1,4.9-2.3,7.5c0,0.4-0.1,0.9-0.3,1.6c-0.5,1.5-1,3.1-1.5,4.6
			l-0.3,0.9c-0.1,0.4-0.3,0.8-0.4,1.3c-0.2,0.5-0.3,0.9-0.5,1.4c-0.2,0.7-0.4,1.5-0.7,2.2c-0.5,1.6-1,3.3-1.6,4.9
			c-0.8,2.1-1.7,4.2-2.6,6.2c-1.3,3.2-2.6,6.1-3.6,9.2c-2.9,8.5-6.7,16.6-10.3,24.5l-2.4,5.3c-1,2.1-1.9,4.2-2.9,6.3
			c-5,11.2-10.9,22.9-18.1,35.9c-4.5,8.1-9.2,15.3-14.3,21.9c-12,15.3-27.4,26-45.9,31.8c-8.5,2.6-16.9,4.3-25.2,4.8
			c1,0,1.9,0,2.8-0.1c7.1-0.4,12.7-1.1,17.6-2.3c6.7-1.6,13.2-4,19.4-7.3c12.7-6.6,22.5-14.6,30.2-24.4l0.3-0.3
			c0.3-0.5,0.7-1,1.2-1.5c1.5-1.6,3.4-2.5,5.4-2.5c2.5,0,4.8,1.4,6.1,3.8c1,1.7,2.2,4,3,6.6c1.1,3.4,2.1,6.9,3.1,10.3
			c0.9,3,1.8,6,2.7,9c1.7,5.3,2.7,10.7,3.7,16c0.9,5,1.8,9.8,3.3,14.4c0.4,1.2,0.6,2.3,0.7,3.3c0.1,0.4,0.2,0.9,0.3,1.3l1.4,6.2
			c1.4,6.2,2.8,12.7,4.3,19c0.4,1.7,1.1,3.5,1.9,5.4l0.1,0.2c0,0.1,0.1,0.2,0.1,0.3c4.4,1,7,4.1,8.6,5.9c3,3.6,6,7.3,8.9,10.9
			l1.5,1.8c25.5,32,51,66.7,77.9,106.3c21.4,31.5,42.3,65.2,63.9,103.1c13.6,23.8,27,49.5,40,76.3c5.7,11.9,11.7,24.5,19.2,40.9
			c2.7,5.9,5.3,12,7.8,17.8c1.1,2.6,2.2,5.2,3.3,7.8c0,0.1,0.1,0.2,0.1,0.3c0.3,0.6,0.7,1.5,0.9,2.7c0.3,2.1,1.3,4.1,2.2,6.4
			c0.3,0.8,0.7,1.6,1,2.3c0.4,1,0.8,2,1.3,3c1.2,2.7,2.4,5.5,3.4,8.4c1.8,5.2,3.9,10.5,5.8,15.6c1.1,2.8,2.2,5.6,3.3,8.5
			c4.4,11.8,9.1,24.5,13.5,37.6c9.8,29.8,19.9,60.8,30,92.1c0.7,2.2,1.5,4.5,2.3,6.7c1.5,4.4,3.1,8.9,4.3,13.6
			c0.9,3.5,2.1,6.9,3.4,10.4c0.6,1.6,1.1,3.2,1.6,4.7c1.5,4.4,2.8,8.9,4.1,13.2c1.4,4.7,2.9,9.5,4.5,14.2c2.7,7.9,5.3,16,7.8,23.8
			c1.5,4.6,2.9,9.1,4.4,13.7c1,3.1,2,6.3,2.9,9.4c2,6.7,3.9,13.1,6.6,19.2c0.4,0.9,0.6,1.8,0.7,2.5c0,0.2,0.1,0.4,0.1,0.5
			c0.4,1.4,0.8,2.7,1.1,4.1c0.5,1.7,1,3.4,1.4,5.1c0.5,1.9,1.1,3.9,1.6,5.8l1.1,4.1c0.2,0.6,0.3,1.2,0.5,1.7
			c0.7,2.1,1.4,4.2,2.2,6.3c1.6,4.7,3.3,9.5,4.7,14.3l1,3.3c1.5,5.1,3,10.3,4.6,15.4c3.2,10.1,6.3,20.4,9.2,30.4
			c1.1,3.8,2.2,7.6,3.4,11.4c0.6,1.9,1.1,3.8,1.7,5.6c1.6,5.2,3.2,10.7,4.7,16.1c1.1,4,2.3,8.1,3.5,12.1c2.5,8.5,5.1,17.2,6.8,26.2
			c0,0.1,0,0.1,0,0.2c1.5,3,2.2,6,2.8,8.8c0.2,0.9,0.4,1.7,0.6,2.6c0.5,1.8,1,3.7,1.6,5.6c0.3,1,0.6,2,0.9,3l0.4,1.2
			c0.4,1.3,0.8,2.7,1.1,4.2c0.3,1.2,0.5,2.5,0.8,3.7c0.3,1.6,0.6,3.1,1,4.6c1.1,4,2.2,8.1,3.2,12.1c1.6,6,3.3,12.3,4.9,18.5
			c4.9,19.6,9.5,38.8,13.3,55c2.8,11.9,6.5,27.6,10.1,43.5c0.9,4,1.6,8,2.4,11.9c0.8,4.3,1.6,8.7,2.6,12.9
			c2.7,11.8,5.3,24.2,7.5,36.9c1.1,5.9,2,12,3,17.8c0.4,2.3,0.7,4.6,1.1,6.8c0.1,0.6,0.2,1.3,0.3,1.9c0,0.3,0.1,0.7,0.1,1
			c1,0.5,2.5,1.3,3.6,2.9l0.1,0.2l6.1,8H801.1V1895z M1041.1,1484.9c6.2,0.3,12.9,0.6,19.5,0.6c2.1,0,4.1,0,6.1-0.1
			c-0.3,0-0.5,0-0.8,0c-2.3,0-4.7,0-7-0.1h-2.5C1051.4,1485.2,1046.2,1485.1,1041.1,1484.9z M992.4,1478.4
			c7.3,1.8,14.5,3.3,21.9,4.1l0.8,0.1c-2.4-0.4-4.8-0.8-7.2-1.3c-2.7-0.6-5.5-1.1-8.2-1.6C997.3,1479.3,994.9,1478.9,992.4,1478.4z
			 M1503.2,1309.3c-10.2,5.3-20.4,10.5-30.6,15.8c-21.7,11.2-44.2,22.8-66.3,34.1c-0.3,0.2-0.7,0.3-1,0.5c-0.4,0.2-0.7,0.4-1.1,0.6
			c-9.5,4.9-19,9.8-28.5,14.7c-0.9,0.4-1.7,0.9-2.6,1.3c10.1-5.1,19.8-10.1,28.8-14.8c35.4-18.2,67.4-34.6,97.6-50.2
			C1500.8,1310.9,1502,1310.2,1503.2,1309.3z M807,1303.5c6.9,15.9,14.6,31.5,23,46.3c2.6,4.6,5.3,9.1,8.1,13.6
			c-0.4-0.7-0.8-1.4-1.2-2c-11.3-19.1-21.4-38.6-30-58.1C806.9,1303.3,807,1303.4,807,1303.5z M985.8,1039.9
			c7,10.5,14.1,20.8,21.2,31.1c1.7,2.4,3.3,4.8,5,7.2c3.5,5.1,7.1,10.4,10.8,15.5c9.3,12.7,16.9,22.9,24.1,32.1
			c7,9,13.5,19.2,20.5,32.3c0.7,1.4,1.6,3,2.6,4.4c0.6,0.9,1.3,1.6,2.1,2.2c0.1-0.1,0.1-0.1,0.2-0.2c-0.3-0.8-1-2-1.2-2.5
			c-1-2-2-3.6-2.9-5.1l-0.1-0.2c-2.9-4.7-6-9.6-9-14.3c-1.8-2.8-3.8-5.6-5.6-8.4c-1.3-2-2.7-3.9-4-5.9c-0.6-0.9-1-1.7-1.4-2.5
			c-0.2-0.3-0.3-0.7-0.5-1l-2-3.8l0.2-0.1l-2.5-2.2c-2.9-2.5-4.9-5.2-6.7-7.6l-4.2-5.6c-4-5.3-8.1-10.8-12.1-16.2
			c-5.4-7.3-9.5-13-13.2-18.4c-3-4.3-6-8.7-8.9-13c-1.8-2.7-3.6-5.4-5.5-8.1c-1.4-2-2.8-4-4.2-6.1
			C987.5,1042.4,986.7,1041.1,985.8,1039.9z M751.3,1019.4c0.1,1.9,0.3,3.8,0.4,5.7c0.3,3.5,0.5,7,0.8,10.5
			c0.6,6.5,1.2,13.1,1.8,19.5l0.6,6.2c0.2,2.4,0.4,4.7,0.7,7.1c0.6,6.1,1.2,12.4,1.8,18.6c1.2,11.4,2.2,20.8,3.3,29.5
			c0.9,7.6,2,16.7,3.4,26c0.5,3.6,1.1,7.2,1.7,10.7c-0.2-1.5-0.4-3.1-0.5-4.6c-0.5-4.8-1.2-9.7-1.8-14.5c-1.2-8.7-2.4-17.7-2.7-26.8
			l0,0c0,0,0-0.1,0-0.2c0-0.3-0.1-0.6-0.1-0.9l-0.8-6.5c-0.6-5.5-1.3-10.9-1.9-16.4c-0.6-5.8-1.2-11.5-1.8-17.3
			c0,0-1.2-12.1-1.6-15.3c-0.4-4.2-0.9-8.5-1.3-12.7l-0.5-5.1C752.3,1028.6,751.8,1024,751.3,1019.4z M1199.1,1027.2
			c-0.3,0.2-0.6,0.4-0.9,0.6c-2.5,1.4-5,2.8-7.6,4.2c-2.8,1.5-5.6,3.1-8.4,4.6c-5.9,3.2-12,6.6-17.9,10
			c-16.1,9.4-29.7,17.4-43.1,25.7c-2.7,1.7-5.4,3.3-8,5c2.8-1.7,5.6-3.3,8.3-4.9c5.2-3,10.5-6.1,15.5-9.4c3.1-2.1,6.3-3.9,9.4-5.6
			c1.5-0.8,3-1.7,4.5-2.5c2-1.2,3.9-2.3,5.9-3.5c3.5-2.1,7.1-4.2,10.7-6.3c5.8-3.3,11.8-6.6,17.6-9.8l6.3-3.5l3.4-1.9
			c2.5-1.4,5.1-2.8,7.6-4.2C1201.4,1026.2,1200.3,1026.7,1199.1,1027.2L1199.1,1027.2z M882.6,887.1c3.9,0.7,5.7,3.4,6.7,4.9
			l0.2,0.3c2.1,3,4.1,6,6,8.9c4.7,7.3,9.4,14.6,14.1,21.9c7.2,11.2,14.7,22.8,22,34.2c16.4,25.4,31.9,49.2,47.2,72.2
			c-8.6-13.1-17.2-26.5-25.6-39.4c-4.4-6.7-8.8-13.5-13.1-20.2c-3.6-5.6-7.2-11.1-10.9-16.7c-6.2-9.6-12.5-19.2-18.7-28.8l-2.8-4.4
			c-5.2-8-10.5-16.2-15.5-24.5c-2.8-4.6-5.2-9.5-7.6-14.2c-0.8-1.6-1.6-3.2-2.4-4.7c-1.3-2.5-2.5-5.5-1.9-9.1
			c0.5-2.9,1.5-8.9,9.2-8.9c0.5,0,1.1,0,1.7,0.1c5.2,0.4,10.6,0.6,16.1,0.6s11.3-0.2,17.2-0.6c0.8-0.1,1.7-0.1,2.5-0.2
			c-3.8,0.1-7.5,0.3-10.9,0.4c-2.1,0.1-4.3,0.1-6.8,0.1c-2.9,0-5.9,0-8.8-0.1h-1.3c-3.9-0.1-7.7-1-11.3-2.7c-5.4-2.6-5.4-6.8-5-9.9
			c0.2-1.6,0.4-3.2,0.5-4.9c0.7-10.8,0.1-21.7-0.6-31.9l-0.1-0.8c-0.5-7.6-1-14.9-3-21.8c-0.3-1.2-0.4-2.3-0.5-3.1
			c-0.1-2.4-0.8-4.9-2.4-8c-0.8-1.5-1.5-3.2-2.1-5c-1.2-3.5,0-7.1,3.1-9.2c1.6-1,3.2-1.7,4.7-2.1c1.6-0.3,3.1-0.4,4.4-0.5l1-0.1
			c4-0.3,8-0.6,12-0.9c8.6-0.6,17.5-1.3,26.2-2.1c9.3-0.9,18.4-2,26.9-3.2c12.4-1.7,22.4-3.6,31.3-6c16-4.4,33-10.3,51.9-18.1
			c10.5-4.3,21.2-8.3,31.8-11.7c15.5-5,32.3-9.6,54.4-15c1.4-0.3,3-0.7,4.5-1c2.5-0.4,5-0.9,7.5-1.3c7.5-1.3,15.2-2.7,22.8-3.9
			c6.7-1.1,12.4-1.6,17.8-1.6c1.3,0,2.6,0,3.8,0.1c5.2,0.3,9.8,1.9,13.9,5.1c1.7,1.3,3.8,2.5,6,3.7l1.2,0.6c0.2,0.1,0.7,0.3,1.4,0.4
			h0.1c0,0,0.1-0.1,0.1-0.2c0,0,0,0-0.1-0.1c-0.8-0.8-1.5-1.2-1.8-1.4c-5-2.6-10.3-5.4-15.6-8c-1.9-0.9-3.9-1.4-6-1.4
			c-0.3,0-0.6,0-0.8,0c-1.1,0.1-2.3,0.1-3.4,0.2c-5.1,0.3-10.4,0.5-15.4,1.2c-4.6,0.6-9.3,1.5-13.9,2.4c-1.6,0.3-3.1,0.6-4.7,0.9
			c-19,3.5-38,8.2-58.1,14.2c-5.2,1.5-10.4,3.5-15.5,5.4c-5.2,2-10.6,4-16.1,5.6c-5.1,1.5-10.1,3.5-15.3,5.6
			c-2.4,0.9-4.8,1.9-7.3,2.8c-12.3,4.6-27,10-42.4,14.6c-0.6,0.2-1.3,0.4-1.9,0.6c-8.3,2.4-16.9,3.8-24.1,4.8
			c-1.7,0.2-3.4,0.6-5.2,0.9c-2.3,0.4-4.8,0.9-7.2,1.2c-6.3,0.8-13,1.5-20.7,2.1c-12.4,1.1-25.8,2.2-41.1,3.4c-2,0.2-4,0.2-5.9,0.2
			h-2.7c-5.2,0-9.8-1.7-13.8-5.1c-1.8-1.5-3.3-2.8-5-3.7c-2.5-1.4-5-2.7-7.6-4.1c0.3,0.2,0.6,0.4,0.9,0.5c0.8,0.5,1.7,1.1,2.5,1.6
			c2.3,1.5,4.8,3,7,4.8c6.2,5,10.4,10,12.9,15.8c2.9,6.5,4.8,12.8,5.8,19.1c0.3,2.2,0.7,4.5,1.1,6.8c0.7,4,1.5,8.2,1.9,12.4
			c0.8,8.4,1.5,16.5,1.3,25c-0.4,14.5-2.1,29-5.1,43.2c-1.1,5-1.5,8.9-1.2,12.5c0,0.6,0.1,1.2,0.2,1.7c0.3-0.2,0.6-0.4,0.8-0.6
			c0.3-0.2,0.6-0.4,0.9-0.7l1.7-1.3L882.6,887.1z M1228.8,1011.6c-1.3,0.6-2.6,1.3-3.9,1.9c-3.6,1.8-7.1,3.7-10.8,5.9
			c-0.5,0.3-1,0.6-1.6,0.9c0,0,0.1,0,0.1-0.1C1218,1017.4,1223.4,1014.5,1228.8,1011.6z M1496.6,914.3c4.2,0.1,8.3,0.2,12.4,0.3
			c3.1,0.1,9.4,0.2,9.4,0.2c-1.2-0.6-2.4-0.9-3.7-0.9h-0.2c-4.4,0.1-8.7,0.2-13.1,0.3C1499.9,914.3,1498.3,914.3,1496.6,914.3z
			 M1085.8,834.1c-3.2,0.6-6.4,1.2-9.6,1.8l-5.5,1.1c-16.1,3.3-32.8,6.7-49.3,9.4c-5.4,0.9-10.8,1.8-16.2,2.7
			c-4.9,0.8-10,1.7-15,2.5c1.3-0.1,2.6-0.3,3.9-0.4c5.1-0.5,9.9-0.9,14.4-2.4c1.6-0.5,3.2-0.8,4.5-1c2.6-0.4,5.2-0.8,7.9-1.2
			c11.1-1.7,22.6-3.4,33.7-6.1c0.5-0.1,1-0.2,1.6-0.3c0.2,0,0.4-0.1,0.6-0.1c1.8-0.4,3.7-0.7,5.5-1c3.9-0.7,7.9-1.5,11.8-2.3
			C1077.8,835.9,1081.8,835,1085.8,834.1z M1177.1,808.8c-2.8,1.7-5.8,2.7-8.6,3.6c0.9-0.2,1.8-0.4,2.7-0.7c3.1-0.8,6.1-1.7,9.2-2.7
			c5-1.6,10.2-3.2,15.7-4.1c2.1-0.3,4.2-0.7,6.3-1.1c7.8-1.3,15.9-2.7,24.1-3.3c2.1-0.1,4.2-0.5,6.3-1c0.6-0.1,1.2-0.3,1.7-0.6
			c-0.1,0-0.2,0-0.3,0h-0.2c-0.8,0-1.7,0-2.5,0c-2.6,0-5.1,0-7.5,0.3c-12.1,1.5-24.2,3.9-35.9,7.1c-2.4,0.7-4.7,1.1-7,1.6
			c-1,0.2-2.1,0.4-3.1,0.6C1177.6,808.7,1177.4,808.8,1177.1,808.8L1177.1,808.8z M832,740.5c4.2,0.4,9.2,1.3,14.1,3.5
			c-1.9-1-3.9-2-5.9-3c-0.4-0.2-1-0.3-1.5-0.4C836.5,740.5,834.2,740.5,832,740.5z M141.4,723.8c-0.4,2.4-0.7,4.9-1.1,7.4l-0.3,2
			c-0.5,3.7-0.4,6.4,0.4,8.7c0.1,0.4,0.3,0.9,0.5,1.3c0-0.4-0.1-0.7-0.1-1c-0.5-3.8-0.4-8,0.1-13.1
			C141.1,727.4,141.2,725.6,141.4,723.8z M1439.9,728.1c7.8,2.7,15.5,4.2,23.2,4.5c-1.9-0.1-3.7-0.3-5.6-0.5
			c-4.6-0.5-9-1.7-13.2-2.8c-1.4-0.4-2.8-0.8-4.3-1.1C1440,728.2,1439.9,728.2,1439.9,728.1z M1293.7,574.9
			c10.8,20.9,24.1,39.8,35.7,55.5c1.5,2.1,3.6,4.8,5.7,7.3c11.1,13.2,23.6,28.2,37,41.5c10.4,10.3,19.8,19.5,30.3,27.8
			c6.6,5.2,13.2,9.6,20,13.3c-9.2-5.3-17.8-11.5-25.9-18.5c-22.6-19.7-43.5-41.8-62.3-65.6c-5.8-7.3-11-14-15.8-21
			c-5.7-8.2-10.8-16.7-15.9-24.9C1299.1,584.5,1296.2,579.5,1293.7,574.9z M1283.8,553.9c1.8,4.1,3.7,8.3,5.6,12.4
			c-0.8-1.7-1.6-3.5-2.3-5.2C1286,558.7,1284.9,556.2,1283.8,553.9z M1269.1,512.6c0.3,1,0.5,1.9,0.8,2.9c0.2,0.8,0.5,1.7,0.8,2.5
			C1270.5,517.6,1269.1,512.9,1269.1,512.6z M1265.9,499.8c1,4.3,2,8.4,3,12.2c-0.5-1.8-0.9-3.5-1.3-5.2c-0.4-1.6-0.7-3.1-1.1-4.7
			C1266.2,501.3,1266,500.6,1265.9,499.8z M1260.6,420.1c-0.9,8.8-1.1,18.1-0.8,28.6v1.2c0.3,11.1,0.6,22.5,2.6,33.3
			c0.1,0.8,0.3,1.5,0.4,2.3c-0.8-5.1-1.4-10.2-1.7-15.2c-1-15.9-1.3-28.2-0.9-39.8c0.1-3.8,0.3-7.9,0.5-12.1
			C1260.8,419,1260.7,419.6,1260.6,420.1z M1311.4,287.2c-0.2,0-0.2,0-0.2,0s-0.4,0.3-1.5,2c-1.5,2.3-2.8,4.8-4,7.4
			c-5.7,12.5-12.2,24.7-17.9,34.9c-1.2,2.1-2.3,4.4-3.5,6.6l-0.7,1.4c-8.9,17.2-14.9,33.5-18.4,49.7c0.1-0.5,0.9-3.3,0.9-3.3
			c1.1-4.1,2.5-8,3.8-11.8c1.3-3.7,2.6-7.3,3.5-10.9c0.3-0.9,0.6-1.7,0.9-2.3c0.1-0.2,0.2-0.3,0.2-0.5c4.1-9.8,8.9-19.8,14.8-30.7
			c6-11.1,12.5-22.8,20.5-37C1311,290.7,1311.5,288.9,1311.4,287.2L1311.4,287.2z"/>
		<path d="M1169,68.7c14.8,0,29.5,0.2,44.3,0.8c16.6,0.7,33.2,2,49.6,4.9c12.3,2.2,24.2,5.9,35.5,11.3c0.7,0.3,1.4,0.7,2.1,1.1
			c1.4,0.7,2.1,1.8,1.9,3.5c-0.3,1.9-0.5,3.8,0.8,5.7c1.6,0.7,3.2,1,4.8,1c1.8,0,3.7-0.4,5.7-1.3c7.6-3.3,15.6-6,24-6.2
			c7.3-0.2,14.6-0.3,21.9-0.3c2,0,4,0,6,0c5.8,0.1,11.5,0.9,17,2.5c17,5,32.1,13.3,45,25.5c9.5,9,18.6,18.5,27.1,28.5
			c27.9,32.6,53.2,67.2,76.6,103.1c26.5,40.8,49.3,83.7,69.9,127.8c5,10.6,9.4,21.3,12.2,32.7c3.4,14.2,5.8,28.5,5.9,43.1
			c0.1,9,0.3,17.9-0.4,26.8c-1,13.2-2.8,26.4-5.2,39.5c-2.4,12.9-4.9,25.7-8.9,38.3c-1.2,3.6-1.4,7.5-3.2,11
			c-0.3,0.6-0.2,1.3-0.4,1.9c-0.6,1.8-1.2,3.6-1.8,5.4c-0.3,0.9-0.6,1.8-0.9,2.7c-0.7,2.3-1.3,4.6-2.2,6.8c-2,5.2-4.4,10.3-6.3,15.6
			c-3.2,9.1-7.3,17.7-11.3,26.4c-1.4,3-2.8,6.1-4.2,9.2c-5.4,12.1-11.5,23.9-17.9,35.5c-4.1,7.4-8.6,14.5-13.9,21.2
			c-11.4,14.6-25.9,24.6-43.5,30.1c-10,3.1-20.2,4.8-30.5,4.8c-3.5,0-7.1-0.2-10.7-0.6c-5.8-0.7-11.2-2.5-16.8-3.8
			c-3.3-0.8-6.4-2-9.4-3.6c-11.6-5.9-22.3-13.2-32.1-21.7c-22.6-19.7-43.1-41.4-61.7-65c-5.3-6.8-10.7-13.6-15.6-20.7
			c-5.5-8-10.6-16.4-15.7-24.7c-3.6-5.9-7.1-11.8-10.2-17.9c-3.1-6.1-5.7-12.5-8.7-18.7s-5.3-12.6-7.6-19
			c-2.4-6.6-4.3-13.4-6.3-20.1c-1.1-3.7-1.8-7.5-2.8-11.2c-2.7-10.1-4.4-20.3-5.1-30.7c-0.8-13.1-1.3-26.2-0.9-39.3
			c0.3-8.6,0.6-17.3,1.7-25.8c0.7-6,2.4-11.8,3.9-17.7c2.1-7.7,5.3-15,7.4-22.7c0.2-0.8,0.6-1.5,0.9-2.2
			c4.3-10.3,9.2-20.4,14.5-30.2c6.7-12.4,13.5-24.7,20.5-36.9c2.3-4,3-8,1.4-12.2c-1.7-0.5-3.1-0.7-4.3-0.7c-2.5,0-4,1.3-6,4.4
			c-1.6,2.6-3,5.3-4.3,8c-5.4,11.8-11.4,23.2-17.7,34.6c-1.5,2.7-2.8,5.4-4.2,8.1c-9.5,18.4-16.8,37.7-20.2,58.2
			c-1.3,8-2.5,16.1-3.3,24.2c-0.9,9.7-1.1,19.5-0.9,29.2c0.3,11.8,0.6,23.7,2.8,35.4c2.1,11,4.4,21.9,7.5,32.7
			c6,20.5,13.9,40.2,23.6,59.1c10.4,20.3,23.2,39,36.6,57.3c1.9,2.6,3.8,5.1,5.9,7.6c12,14.3,24,28.7,37.3,41.9
			c9.9,9.8,19.8,19.6,30.8,28.1c9.1,7.1,18.8,13.2,29.3,18.1c12,5.5,24.4,8.7,37.5,8.7c1,0,1.9,0,2.9-0.1c3.2-0.1,6.4,0,9.6-0.2
			c6.2-0.3,12.4-1,18.5-2.4c7.2-1.7,14-4.3,20.6-7.7c12.3-6.5,23.2-14.7,31.8-25.8c0.4-0.5,0.8-1,1.2-1.5c0.6-0.6,1.2-0.9,1.7-0.9
			c0.7,0,1.3,0.4,1.8,1.3c1,1.8,2,3.7,2.6,5.6c2,6.4,3.8,12.9,5.9,19.3c3.1,9.9,3.8,20.4,6.9,30.3c0.4,1.4,0.6,2.8,0.9,4.2
			c1.9,8.4,3.7,16.9,5.6,25.3c0.5,2.2,1.4,4.3,2.2,6.3c0.6,1.5,1.7,2.9,3.3,3.2c2.8,0.5,4.5,2.4,6.1,4.3c3.5,4.2,6.9,8.4,10.2,12.7
			c27.4,34.3,53,69.8,77.7,106c22.7,33.3,43.7,67.7,63.6,102.7c14.2,24.9,27.4,50.3,39.8,76c6.5,13.5,12.9,27.1,19.1,40.8
			c3.9,8.4,7.4,17,11.1,25.5c0.3,0.6,0.6,1.2,0.7,1.8c0.5,3.5,2.2,6.6,3.6,9.9c1.5,3.7,3.2,7.3,4.5,11.1c2.8,8.1,6.1,16.1,9.1,24.2
			c4.7,12.4,9.2,24.8,13.4,37.4c10.1,30.7,20.1,61.3,30,92.1c2.2,6.7,4.7,13.2,6.5,20c1.4,5.2,3.4,10.3,5.1,15.5
			c3,9.1,5.5,18.4,8.6,27.4c4.2,12.4,8.1,24.9,12.1,37.4c3.2,9.7,5.5,19.7,9.6,29.1c0.3,0.7,0.4,1.5,0.6,2.3
			c0.9,3.1,1.7,6.1,2.6,9.2c0.9,3.2,1.8,6.5,2.7,9.7c0.2,0.8,0.4,1.5,0.7,2.3c2.3,6.8,4.8,13.5,6.8,20.4c1.8,6.3,3.6,12.6,5.6,18.8
			c4.4,13.8,8.4,27.8,12.5,41.8c2.1,7.2,4.4,14.4,6.3,21.6c3.4,12.6,7.8,25,10.3,37.9c0.1,0.5,0.2,1,0.4,1.4c1.7,3.3,2.2,7,3.2,10.5
			c0.8,2.9,1.7,5.8,2.6,8.7c0.5,1.7,1,3.4,1.4,5.1c0.6,2.8,1.1,5.7,1.8,8.4c2.7,10.2,5.6,20.3,8.1,30.6c4.5,18.3,9,36.6,13.3,55
			c3.4,14.5,6.8,28.9,10.1,43.4c1.8,8.3,3.1,16.7,5,24.9c2.8,12.1,5.3,24.4,7.5,36.6c1.5,8.2,2.7,16.4,4.1,24.6
			c0.3,1.6,0.5,3,0.7,4.7c0.3,1.9,0.5,2.5,1,4.3c0.1,0.1,3.2-0.9,3.3-0.8c-405.6,0-811.2,0-1216.9,0c0.1-1.2,0.3-2.5,0.3-3.7
			c-0.2-11.5-0.6-23-0.5-34.5c0.2-28.3,0.5-56.6,1-84.9c0.3-18.7,1-37.4,1.5-56.1c0.5-16.6,1.2-33.2,1.4-49.9
			c0.3-32.1,0.2-64.3,0.4-96.4c0.1-18.1-0.8-36.1-2.4-54.1c-0.4-5.3-1.2-10.5-1.8-15.7c-0.3-2.1-0.7-4.1-0.9-6.2
			c-1.3-13.2-3.7-26.3-6.3-39.3c-2.5-12.7-5.7-25.3-9.1-37.7c-5.9-22-13.5-43.3-23.8-63.6c-2.3-4.6-4.7-9.1-7.2-13.6
			c-0.4-0.7-1.3-1.2-2.2-2.1c-0.8,1.4-1.6,2.4-2,3.6c-1,2.9-1.3,5.9-0.7,9c1,5.4,2.7,10.5,4.9,15.5c0.9,2,2,4,1.9,6.5
			c-0.8,0.5-1.5,1.2-2.4,1.4c-2.9,0.8-5.9,1.7-8.8,2c-6.5,0.8-13,1.9-19.3,3.4c-3.7,0.9-7.5,1.7-11.3,2c-3.3,0.3-6.2,1.2-9,3
			c-1.6,1.1-3.3,1.8-5.2,2.2c-12.8,2.8-25.6,5.7-38.4,8.5c-20.7,4.6-41.4,9.5-62.2,13.7c-18.8,3.7-37.5,7.8-56.6,10
			c-4.8,0.6-9.5,1.6-14.2,2.2c-7.4,1-14.9,1.9-22.4,2.6c-7.5,0.8-14.9,1.7-22.4,2c-13.3,0.6-26.5,0.9-39.8,0.9
			c-3.8,0-7.7,0-11.5-0.1c-9.3-0.2-18.5-0.1-27.7-1.7c-2.4-0.4-4.7-0.7-7.1-0.9c-17.1-1.4-33.9-4.3-50.4-8.9
			c-13.2-3.7-26.4-7.6-38.6-14.2c-8.4-4.6-16.8-9.2-25.1-14c-4.8-2.8-9.8-5.4-13.5-9.8c-0.3-0.3-0.8-0.5-1.2-0.8
			c-2.3-1.7-4.7-3.4-6.8-5.3c-3.9-3.5-7.7-7.2-11.5-10.9c-26.2-24.9-47.4-53.6-64.8-85.2c-8.3-14.9-16.3-30.1-22.7-46
			c-3.9-9.5-7.8-18.9-11.5-28.4c-2.3-6-4.7-11.9-6.2-18.1c-1.3-5.3-3.5-10.3-4.7-15.5c-0.3-1.4-0.6-2.8-0.9-4.2
			c-0.4-1.5-0.7-3.1-1.2-4.6c-1.1-3.5-2.4-7-3.2-10.5c-3.4-14.8-6.9-29.6-9.9-44.4c-2.8-13.8-5.2-27.6-7.4-41.5
			c-2.2-13.7-4.1-27.5-5.8-41.3c-2.2-17.9-3.9-35.9-5.8-53.9c-1.9-17.3-3.9-34.6-5.6-52c-0.5-5.2-1.2-10.5-0.5-15.8
			c0.3-2.3-0.3-4.4-1.4-6.5c-0.5-1-1.1-2-1.6-2.9c-7.8-14.9-14.9-30-17.7-46.9c-1.2-7.4-2.9-14.8-3-22.3
			c-0.2-14.9-0.1-29.7-0.1-44.6c0-4.3,0.7-8.6,2-12.7c3.4-10.5,7.5-20.7,13-30.4c2.5-4.3,5.3-8.4,8.9-11.8c2.8-2.7,5.9-4.9,9.6-6.1
			c2.7-0.9,5.5-1.5,8.2-1.5c3.2,0,6.3,0.8,9.4,2.6c4.8,2.9,5.9,6,4.9,10.3c-0.9,4.2-1.4,8.5-2,12.8c-0.5,3.7-0.6,7.4,0.5,10.9
			c0.5,1.6,1.3,3.3,2.3,4.7c1.3,1.6,2.3,2.4,3.4,2.4c1.2,0,2.3-1,3.7-2.9c0.5-0.7,0.7-1.8,0.8-2.7c0.1-1.1,0-2.2-0.1-3.3
			c-0.5-4-0.3-8,0.1-12c0.9-8.3,1.6-16.5,2.5-24.8c0.4-3.7,0.8-7.3,1.4-10.9c2.5-15.2,6.8-29.9,12.1-44.3
			c2.7-7.2,6.1-14.1,10.5-20.4c1.4-2.1,3-4.2,4.8-5.9c2.3-2.1,5.2-3.2,8.2-3.2c4.3,0,8.6,2.1,10.8,6c2.2,3.7,3.9,7.7,6,11.5
			c5,9.3,7.9,19.2,9.4,29.6c1.4,9.8,2.5,19.7,3.8,29.5c0.9,7.4,1.7,14.9,4,22.1c0.5,1.6,0.2,2.8-0.9,3.9c-0.8,0.8-1.6,1.6-2.4,2.4
			c-3.1,2.8-6.2,5.5-9.3,8.3c-2,1.8-4,3.7-5.1,6.3c-1.2,2.9-0.1,5,2.9,5.8c0.6,0.2,1.3,0.3,1.9,0.3c1.5,0,2.8-0.5,4-1.3
			c2.5-1.8,4.9-3.6,7.1-5.6c4.2-3.8,8-7.8,12.3-11.5c4.4-3.8,9.3-6.5,15.3-7.3c2.1-0.3,4.2-0.4,6.3-0.4c3,0,6,0.2,9,0.7
			c8.1,1.1,15.4,4,21.2,10.2c1,1.1,2,2,3,3.1c2.2,2.3,4.1,4.8,5.1,8c0.8,2.7,2.3,5.3,3.5,7.9c1.2,2.6,2.4,5.2,3.5,7.9
			c1.9,4.7,2.4,9.6,1.7,14.6c-0.3,2.2-0.4,4.5-0.6,6.7c-0.5,5.1-0.8,10.2-1.4,15.3c-0.9,8.6-3.4,16.9-5.9,25.2
			c-4.3,14.6-9.6,28.8-15.3,42.9c-1.4,3.6-2.6,7.2-3.7,10.9c-0.4,1.2-0.5,2.5-0.5,3.8c0.1,3.4,3,6.7,6.1,7.1c0.3,0,0.6,0.1,0.8,0.1
			c1.6,0,2.8-0.8,3.4-2.4c0.5-1.2,0.8-2.4,1-3.7c0.6-3.8,1.8-7.4,3.4-10.9c0.3-0.6,0.3-1.6,1.7-1.6c0.6,1,1.2,2,1.8,3.1
			c16.1,31.1,32.3,62.1,48.4,93.2c9.6,18.6,19.1,37.3,28.3,56.1c9.8,20,18.6,40.4,27.1,60.9c1.3,3.2,2.1,6.3,1.3,9.8
			c-0.5,1.9,0,3.5,1.9,4.4c2.2,1,3.3,2.9,4.3,5c0.7,1.6,1.4,3.2,2,4.9c3.2,8.5,6.4,17.1,9.5,25.6c1.3,3.4,4.6,6.1,7.8,6.1h0.1
			c2.3,0,3.7-1,3.7-3.3c0-2-0.2-4.2-0.8-6.1c-2-5.7-4.2-11.4-6.3-17c-2-5.4-4.1-10.7-6.2-16.1c-0.7-1.7-0.3-3.1,1.2-4.2
			c1.4-1,2.8-2.1,4.2-3.2c7.3-5.2,14.9-9.9,22.6-14.5c11.8-7.1,22.9-15.1,34.8-22.1c13.7-8,26.9-16.6,40.6-24.6
			c16.1-9.4,32.6-18.3,49.3-26.7c22.1-11.2,44.2-22.4,67.2-31.6c13.5-5.4,26.9-11.1,40.8-15.4c11.4-3.6,22.7-7.6,34-11.5
			c0.6-0.2,1.1-0.3,1.6-0.3c1.1,0,2,0.4,2.8,1.3c1.3,1.4,2.4,3,3.5,4.6c6.3,9.2,13.6,17.3,22.5,24c1,0.8,2,1.6,3,2.4
			c2.9,2.1,4.1,5,4.4,8.6c1,13.4,2.1,26.8,3.2,40.2c0.5,5.9,0.9,11.8,1.4,17.7c0.8,8.6,1.6,17.2,2.4,25.8c0.8,8.6,1.6,17.2,2.5,25.8
			c1,9.9,2.1,19.7,3.3,29.6c1,8.7,2.1,17.5,3.4,26.1c1.3,8.4,2.8,16.7,4.2,25.1c2.1,12.3,4,24.6,7.4,36.6c0.5,1.7,0.7,3.4,1,5.2
			c0.4,2.3,0.8,4.7,1.3,7c0.8,3.3,1.8,6.5,2.6,9.7c7,26.8,15.6,53,26.6,78.5c6.9,16,14.6,31.6,23.2,46.8c13,23.1,28.9,44.1,47,63.4
			c15.8,16.8,33.4,31.1,53.5,42.5c19,10.8,39.2,18.6,60.4,23.9c9,2.2,18,4.4,27.2,5.4c6.7,0.7,13.3,1.6,20,2c8.9,0.5,17.9,1,26.8,1
			c2.2,0,4.5,0,6.7-0.1c10.6-0.3,21.1-1.4,31.5-2.6c6.5-0.8,13-1.6,19.5-2.7c5.8-1,11.5-2.5,17.3-3.7c21.4-4.2,44.4-11,65.6-19.3
			c0.7-0.3,1.5-0.4,2.3-0.6c2-0.6,4-1.2,5.9-1.9c2.8-1,5.7-2.2,8.5-3.3c6.1-2.5,12.2-4.7,18.2-7.5c5.9-2.8,12.4-4.2,17.8-8
			c0.3-0.2,0.6-0.2,0.9-0.4c3.5-1.5,7.1-3,10.5-4.7c10.2-4.9,20.4-9.9,30.6-14.9c8.6-4.2,17.3-8.3,25.8-12.6
			c27.5-14,55-28,82.4-42.1c32.6-16.7,65.1-33.4,97.6-50.2c2.4-1.2,4.7-2.8,6.7-4.5c1.2-1,2-2.5,2.7-3.9c0.7-1.6,0.3-3.2-0.9-4.4
			c-0.7-0.7-1.6-1.1-2.6-1.1c-0.5,0-1,0.1-1.4,0.3c-1.6,0.7-3.2,1.4-4.8,2.2c-32.5,16.8-65,33.7-97.6,50.3c-0.7,0.4-1.4,0.8-2.1,1.1
			c-32.7,16.9-65.2,33.9-98,50.5c-17.1,8.7-34.5,16.7-51.8,25c-7.2,3.5-14.3,7.1-21.7,10.1c-19.5,7.7-39.1,15-59.1,21.1
			c-14.2,4.3-28.6,8.1-43.2,10.9c-9.2,1.8-18.6,3.1-27.9,4.7c-8.5,1.4-17.1,2.2-25.8,2.2c-0.8,0-1.6,0-2.4,0c-4.3-0.1-8.6,0-13-0.1
			c-16.8-0.3-33.6-0.5-50.1-3.9c-8.1-1.7-16.4-2.9-24.4-5c-21.6-5.7-41.9-14.7-61.3-25.6c-2.1-1.2-4.1-2.5-6.1-3.8
			c-23.4-16.4-43.9-35.7-60.3-59.2c-5.5-7.9-10.7-15.9-15.6-24.1c-17.7-29.8-32.5-60.9-43.9-93.6c-1.5-4.4-2.3-9-4.8-13
			c-0.3-0.5-0.3-1.2-0.5-1.8c-0.9-3.5-1.7-7.2-2.9-10.6c-3.9-12-6.6-24.4-9.6-36.6c-1.9-7.6-3-15.4-4.3-23.1
			c-1.8-10.6-3.8-21.1-4.9-31.7c-1.4-13.7-4-27.2-4.5-41c0-0.5-0.1-0.9-0.2-1.4c-0.9-7.6-1.8-15.2-2.6-22.9
			c-0.8-7.6-1.6-15.3-2.4-22.9c-0.8-7.5-1.5-14.9-2.3-22.4s-1.5-14.9-2.4-22.4c-1.3-11.3-3-22.5-3.3-33.9c-0.1-3.5-0.6-7-0.9-10.5
			c-0.3-3.5-1.7-6.4-4.4-8.7c-2.1-1.7-4.2-3.5-6.3-5.2c-5.4-4.3-10.4-9-14.6-14.5c-5.2-6.7-10.1-13.6-13.9-21.2
			c-7.8-15.4-14.3-31.4-18.8-48.1c-1.1-4-2-8.1-3.4-12c-3.2-9.2-3.8-18.8-4.7-28.3c-1-9.9-0.6-19.8,0-29.7c0.2-2.9,0.8-5.7,1.9-8.4
			c2.3-5.8,5.2-11.3,8.4-16.7c3.4-5.6,8.1-9.9,13.4-13.6c1.4-0.9,2.8-2,4.6-2c0.1,0,0.1,0,0.2,0c1.5,1.4,1.4,3.2,1.5,4.9
			c0.6,8.6,1.2,17.2,1.9,25.8c0.3,4.6,0.6,9.3,1.1,13.9c0.2,1.7,0.6,3.5,1.2,5.1c0.7,1.8,2.8,3,4.4,3c0.2,0,0.4,0,0.6-0.1
			c1.9-0.4,3.7-2.2,4.1-4.2c0.2-0.9,0.2-1.9,0.2-2.9c-0.1-3.7-0.1-7.4-0.4-11c-0.7-10.2-1.6-20.4-2.1-30.6c-0.6-12,0-24,2.2-35.8
			c1-5.5,2.4-10.9,3.6-16.4c1.3-5.9,2-12,4.8-17.5c0.3-0.6,0.3-1.3,0.5-1.8c1.9-5.1,3.8-10.2,5.9-15.2c1.4-3.4,3.6-6.4,6.4-8.9
			c2.7-2.3,5.6-3.5,8.7-3.5c1.8,0,3.6,0.4,5.6,1.3c4.6,2,8.2,5.1,10.3,9.6c2,4,3.8,8.1,5.2,12.4c4,12.6,8.2,25.2,10.7,38.3
			c0.1,0.3,0.1,0.6,0.2,0.9c1.8,3.5,1.9,7.4,2.8,11.1c1.7,6.4,1.2,6.3-2.8,11.1c-4.4,5.3-7.1,11.4-8,18.2c-1.1,8.6-0.4,17.2,0,25.9
			c0,0.5,0.1,1,0.2,1.4c0.8,3.3,3.3,5.3,6.5,5.3c0.3,0,0.6,0,0.9-0.1c1.4-0.2,2.4-1,2.5-2.4c0.2-2.2,0.3-4.5,0.3-6.7
			c0-6.6-0.1-13.1,0.1-19.7c0.1-2.2,0.4-4.5,1.2-6.5c2.3-6.1,6-11.2,11.4-15.1c7.6-5.4,11.6-7.3,19.1-7.3c1.5,0,3.2,0.1,5,0.2
			c6.4,0.5,12.6,1.7,18.2,5.3c3.1,2,6.3,3.8,9.1,6.1c4.8,3.8,9,8.2,11.5,13.9c2.6,5.7,4.5,11.5,5.4,17.8s2.4,12.5,3,18.9
			c0.8,8.1,1.5,16.2,1.2,24.4c-0.4,14.3-2.1,28.4-5,42.3c-1,4.6-1.6,9.1-1.3,13.8c0.1,1.6,0.3,3.2,0.8,4.7c0.3,0.8,1.1,1.5,1.9,1.9
			c0.6,0.3,1.1,0.4,1.7,0.4c0.8,0,1.6-0.3,2.4-0.7c1.1-0.7,2-1.4,2.9-2.1c2,0.4,2.9,1.8,3.8,3.1c2,2.9,4,5.8,5.9,8.8
			c12,18.7,24,37.4,36.1,56.1c24.8,38.3,49.6,76.5,75.5,113.9c5.3,7.6,10.4,15.3,15.9,22.8c7.9,10.8,15.9,21.6,24.2,32.2
			c7.7,9.9,14.1,20.5,20,31.5c0.9,1.7,1.9,3.4,3,4.9c1.8,2.5,4.1,4.3,7,5.2c5.3-4.5,5.5-5.3,2.5-11c-1-1.8-2-3.7-3.1-5.4
			c-3-4.9-6.1-9.8-9.2-14.6c-3.2-4.8-6.5-9.5-9.7-14.3c-0.6-0.9-1-1.9-1.6-3.1c2.2-1.6,4-3,6-4.3c9-5.9,17.9-11.7,27-17.4
			c9.1-5.7,18.3-11.1,27.4-16.8c9.1-5.7,18.6-10.5,27.5-16.5c4.4-2.9,9.1-5.3,13.7-8c5.5-3.2,11-6.6,16.5-9.7
			c7.9-4.5,15.9-8.9,23.8-13.3c4.3-2.4,8.6-4.9,13-7.2c17.3-9.3,34.6-18.6,52.2-27.4c15-7.5,30-15,45.3-22
			c19.3-8.9,39-16.9,58.6-24.9c8.3-3.4,16.8-6.1,25.3-9c28.3-9.6,57-17.7,86-24.9c4.3-1.1,8.6-1.7,13-1.7c0.3,0,0.5,0,0.8,0
			c10.1,0.2,20.1,0.5,30.2,0.7c1.6,0,3.1,0.1,4.7,0.1h0.1c3.2,0,4.2-3.2,2.5-5.5c-0.4-0.5-0.8-1-1.3-1.4c-2.7-2.5-5.8-4.1-9.6-4.1
			c-0.1,0-0.2,0-0.3,0c-10.5,0.3-21.1,0.4-31.6,0.7c-2.4,0.1-4.8,0.3-7.1,0.9c-12.1,3.2-24.1,6.4-36.1,9.7
			c-10.8,3-21.5,6.2-32.2,9.3c-0.8,0.2-1.5,0.6-2.2,0.9c-2.5,1-5,2.1-7.6,2.9c-15.1,4.8-29.8,10.6-44.5,16.3
			c-9.8,3.8-19.6,7.9-29.3,11.8c-4.7,1.9-9.5,3.7-14.2,5.8c-4,1.7-7.8,3.6-11.7,5.4c-4,1.9-8.3,3.3-11.9,6.1
			c-0.5,0.4-1.2,0.5-1.7,0.7c-3.4,1.4-6.8,2.7-10.2,4.2c-8.5,4-17.1,8-25.5,12.2c-8.6,4.2-17.1,8.8-25.7,12.9
			c-8.8,4.2-16.8,9.9-25.7,13.7c-0.4,0.2-0.8,0.5-1.2,0.8c-2.5,1.4-5,2.8-7.5,4.2c-8.8,4.9-17.7,9.6-26.4,14.6
			c-14.5,8.5-29,17-43.2,25.8c-22.4,13.9-44.6,28.2-66.4,43.1c-1.8,1.2-3.8,2.3-5.8,3.6c-2.7-2.3-4.5-4.9-6.4-7.4
			c-5.3-7-10.6-14.1-15.8-21.1c-4.5-6.1-8.9-12.1-13.2-18.3c-4.9-6.9-9.5-14-14.3-21c-3.8-5.5-7.8-11-11.4-16.6
			c-13.7-21-27.3-42.1-41-63.2c-9.8-15.2-19.7-30.3-29.5-45.4c-6.2-9.5-12.4-19-18.2-28.7c-3.6-6-6.6-12.4-9.9-18.6
			c-1-1.8-1.8-3.8-1.4-6c0.6-3.6,1.3-4.8,4.3-4.8c0.4,0,0.8,0,1.3,0.1c5.5,0.4,11,0.6,16.5,0.6c5.8,0,11.7-0.2,17.5-0.6
			c8.8-0.6,17.5-1.4,26.3-2.2c7.6-0.8,15.2-1.7,22.9-2.6c5.4-0.7,10.8-1.5,16.2-2.1c6.7-0.7,13.4-1,19.9-3c1.2-0.4,2.5-0.6,3.8-0.8
			c14-2.2,28.2-3.9,42-7.4c0.6-0.2,1.3-0.2,1.9-0.4c5.8-1.1,11.6-2.1,17.4-3.4c20.7-4.6,41.4-9.7,61.9-15.3
			c6.5-1.7,12.9-3.5,19.4-5.3c2.1-0.6,4.2-1.5,6.4-2.1c3.2-0.9,6.5-1.7,9.8-2.5c8.2-2.1,16-5.3,24.5-6.7c9.9-1.6,19.8-3.6,29.9-4.3
			c2.4-0.2,4.8-0.6,7.1-1.1c1.7-0.4,3.4-1.1,4.8-2c1.8-1.1,2.2-3.1,1.8-5.1c-0.3-1.9-1.8-2.6-3.4-3c-1-0.2-2-0.4-3-0.4
			c-0.1,0-0.2,0-0.3,0c-3.5,0.1-7.1,0-10.5,0.4c-12.4,1.5-24.6,3.9-36.6,7.3c-3.2,0.9-6.5,1.4-9.8,2.1c-0.6,0.1-1.3,0.2-1.8,0.5
			c-4.3,2.7-9.2,3.6-13.9,5.1c-21,6.8-42.2,12.7-63.8,17.4c-7.3,1.6-14.8,2.7-22.1,4.2c-18.2,3.7-36.3,7.5-54.6,10.5
			c-12.9,2.1-25.8,4.4-38.8,6.4c-7.3,1.1-14.6,1.9-21.9,2.8c-5.4,0.7-10.8,1.5-16.2,1.9c-9.3,0.6-18.5,0.9-27.8,1.2
			c-2.2,0.1-4.5,0.1-6.7,0.1c-3.4,0-6.7-0.1-10.1-0.1c-3.2,0-6.3-0.8-9.3-2.2c-2.2-1-2.6-2.1-2.2-4.7c0.2-1.7,0.5-3.5,0.6-5.2
			c0.7-10.9,0.1-21.7-0.6-32.6c-0.5-8-1-16-3.3-23.7c-0.2-0.6-0.2-1.3-0.3-1.9c-0.1-3.6-1.3-6.9-3-10c-0.7-1.4-1.3-2.9-1.9-4.4
			c-0.5-1.4,0-2.6,1.2-3.4c0.9-0.6,1.9-1.1,3-1.3c1.6-0.3,3.2-0.4,4.8-0.5c12.7-1,25.5-1.9,38.2-3.1c9.1-0.8,18.1-2,27.1-3.2
			c10.8-1.5,21.5-3.3,32-6.2c17.9-4.9,35.3-11.2,52.5-18.3c10.3-4.3,20.8-8.1,31.5-11.6c17.8-5.8,35.9-10.5,54-14.9
			c1.4-0.3,2.8-0.7,4.2-0.9c10.1-1.8,20.1-3.6,30.2-5.3c5.6-0.9,11.3-1.5,16.9-1.5c1.2,0,2.4,0,3.6,0.1c4.1,0.2,7.7,1.5,11.1,4
			c2.4,1.8,5.1,3.2,7.8,4.7c1,0.5,2.1,0.8,3.2,1c0.3,0,0.5,0,0.7,0c2.1,0,3.7-1.2,4.7-3.1c1-2,0.7-4-1.1-5.7c-0.9-0.9-1.9-1.7-3-2.3
			c-5.2-2.8-10.5-5.5-15.8-8.1c-2.6-1.2-5.4-1.9-8.2-1.9c-0.4,0-0.7,0-1.1,0c-6.4,0.4-12.8,0.6-19.1,1.4c-6.3,0.8-12.6,2.2-18.9,3.3
			c-19.8,3.7-39.3,8.5-58.6,14.3c-10.7,3.2-20.9,7.9-31.6,11.1c-7.8,2.3-15.3,5.6-22.9,8.5c-13.9,5.2-27.9,10.2-42.1,14.5
			c-0.6,0.2-1.2,0.4-1.8,0.5c-7.7,2.2-15.6,3.5-23.5,4.7c-4.1,0.6-8.2,1.5-12.3,2.1c-6.8,0.8-13.7,1.5-20.5,2.1
			c-13.7,1.2-27.4,2.3-41.1,3.4c-1.8,0.1-3.6,0.2-5.5,0.2c-0.8,0-1.6,0-2.4,0c-0.1,0-0.2,0-0.3,0l0,0c-4,0-7.5-1.3-10.5-3.9
			c-1.8-1.5-3.7-3.1-5.8-4.3c-5.7-3.2-11.6-6.2-17.4-9.1c-1.1-0.6-2.4-0.9-3.6-0.9c-5.8-0.1-11.5-0.1-17.3-0.1c-0.2,0-0.3,0-0.5,0
			c-4.2,0-8.2,0.5-12.1,2.5c-0.8,0.4-1.5,0.6-2.2,0.6c-1.4,0-2.4-0.9-3.2-2.8c-0.7-1.6-1.2-3.3-1.6-5c-2.9-11-5.7-22-8.8-32.9
			c-3.5-12.1-5.4-24.3-6-36.8c-0.2-4-0.5-8-0.9-12c-0.1-1.3-0.5-2.5-0.8-3.7c-0.4-1.6-1.6-2.3-3.2-2.5c-0.3,0-0.6-0.1-0.9-0.1
			c-2.2,0-4,1.2-4.7,3.4c-0.5,1.5-0.8,3.1-0.9,4.7c-0.1,2.6,0,5.1-0.1,7.7c0,0.9-0.2,1.8-0.4,3.1c-1.8-0.8-3.3-1.2-4.7-2
			c-3.7-1.9-7.5-2.8-11.5-2.8c-1,0-1.9,0.1-2.9,0.1c-7.5,0.8-13.8,3.9-18,10.5c-1.4,2.2-2.6,4.4-3.8,6.7c-5,10.1-8.8,20.6-11.4,31.5
			c-3,12.4-5.3,25-6.8,37.7c-0.2,1.6-0.5,3.2-1,4.7c-0.7,1.8-1.7,2.7-3,2.7c-0.8,0-1.7-0.4-2.6-1.2c-2.8-2.4-5.2-5.2-6.3-8.9
			c-0.5-1.7-1-3.4-1.7-5c-3.3-6.6-5.3-13.7-7.7-20.6c-4.2-12.1-7.7-24.4-10.1-36.9c-1.6-8.3-3.3-16.6-3.8-25.1
			c-0.7-11.5-1-23-0.4-34.5c0.9-16.8,4.8-32.9,11.3-48.3c10.1-23.8,24.1-45.1,41.6-64c6.6-7.2,13.6-14,20.5-20.9
			c10.6-10.6,22.1-20.4,33.6-30.1c7.3-6.2,15-12,23.4-16.6c2.1-1.2,4-2.6,5.9-4c1.5-1.2,2.2-2.8,1.4-4.7c-1.4-3.4-1.2-6.9-0.9-10.4
			c0.9-9.7,1.9-19.4,3.6-29c3.3-18.5,7.8-36.6,14.5-54.1c9.6-24.8,21.8-48.3,36.5-70.5c8.6-13.1,17.9-25.7,28.5-37.3
			c6.2-6.9,12.6-13.6,18.9-20.4c2.4-2.6,5-5,7.5-7.5s5.5-3.8,9-4.2c1.6-0.2,3.1-0.6,4.7-1c4.1-1,4.2-5,1.7-7.4
			c-2.1-2-4.4-3.1-7.1-3.1c-0.5,0-1.1,0-1.6,0.1c-3.1,0.5-5.9,1.6-8.3,3.6c-3.2,2.6-6.4,5.3-9.4,8.2c-11,10.7-21.3,22.2-30.9,34.1
			c-11.9,14.7-23.3,29.7-32.8,46c-5.2,8.8-9.4,18.2-13.7,27.4c-4.9,10.6-9.9,21.1-14.2,32c-4.2,10.7-8.1,21.5-9.6,33.1
			c-0.1,0.6-0.2,1.3-0.4,1.9c-1.8,4.9-2.2,10-2.9,15c-0.9,6.5-1.6,13-2.9,19.4c-0.8,4.3-1.5,8.5-1.7,12.8c-0.1,2.2-0.8,4.4-1.5,6.5
			c-0.3,0.9-0.9,1.7-1.7,2.3c-3.2,2.3-6.5,4.6-9.9,6.8c-0.7,0.5-1.7,0.7-2.7,1.1c-0.9-2.1-0.7-4-0.7-5.9c0-7.1,0.8-14,2.1-21
			c1-5.3,2.1-10.7,3.4-15.9c1.5-6.7,3.5-13.3,4.8-20.1c2-10.2,5-20.2,7.8-30.1c5.6-19.4,12.3-38.3,19.5-57.2
			c4.3-11.5,8.8-23,14.2-34.1c5.2-10.6,10.4-21.2,16.4-31.4c6.3-10.8,13.1-21.2,21.5-30.5c1.9-2.1,3.8-4.3,5.7-6.5
			c8.4-9.7,17.8-18.4,27.7-26.5c11-9,23-16.1,36-21.8c3.4-1.5,6.8-2.9,10.2-4.2c4.9-1.9,9.9-3.7,15.2-4.1c1.7-0.2,3.4-0.7,5.1-1.1
			c3.7-0.9,7.4-1.9,11.2-2.7c5.4-1.1,10.4-3.1,15.2-5.6c5.8-3.1,11.2-6.8,16.2-11.1c3.5-3.1,7.3-5.7,11.4-8c4.5-2.5,9-4.9,13.6-7.2
			c11.4-5.6,23-10.4,35.3-13.6c19.1-5,38.5-7.6,58.3-7.8C1149.5,68.8,1159.2,68.7,1169,68.7 M1169,58.7c-9.6,0-19.4,0.1-28.8,0.2
			h-0.4c-20.3,0.2-40.8,2.9-60.8,8.1c-11.6,3-23.4,7.6-37.1,14.3c-4.9,2.4-9.6,5-14,7.4c-4.7,2.6-9.1,5.7-13.1,9.2
			c-4.4,3.8-9.2,7.1-14.3,9.8c-4.3,2.2-8.5,3.8-12.7,4.7c-2.6,0.6-5.1,1.2-7.6,1.8c-1.3,0.3-2.6,0.6-3.8,0.9
			c-0.5,0.1-1.1,0.3-1.6,0.4c-0.8,0.2-1.7,0.4-2.2,0.5c-6.8,0.6-12.8,2.8-17.9,4.8c-2.9,1.1-6.7,2.7-10.6,4.4
			c-14.6,6.4-27.1,14-38.3,23.2c-11.5,9.5-21,18.5-28.9,27.7l-0.4,0.5c-1.8,2-3.4,4-5.1,5.8c-9.7,10.7-16.9,22.2-22.7,32.1
			c-6.5,11-12.1,22.3-16.8,32.1c-5.8,11.9-10.6,24.3-14.6,34.9c-5.9,15.7-13.5,36.5-19.7,57.9l-0.9,3.1c-2.6,9-5.3,18.3-7.1,27.9
			c-0.7,3.9-1.7,7.7-2.7,11.8c-0.7,2.6-1.3,5.2-1.9,7.9c-1.2,5.3-2.4,10.8-3.4,16.3c-1.5,8-2.3,15.5-2.3,22.9c0,0.2,0,0.5,0,0.7
			c0,2.1-0.1,5.5,1.6,9.3l2.5,5.5c-1.1,0.9-2.1,1.7-3.2,2.7c-11.4,9.7-23.2,19.7-34.2,30.7c-1.1,1.1-2.1,2.1-3.2,3.2
			c-5.8,5.8-11.8,11.8-17.6,18c-18.6,20.2-33.2,42.7-43.5,66.9c-7.1,16.8-11.2,34.2-12.1,51.7c-0.6,10.7-0.4,22,0.4,35.7
			c0.6,8.8,2.2,17.3,3.8,25.5l0.2,0.9c2.4,12.4,5.8,25,10.5,38.4c0.5,1.6,1.1,3.1,1.6,4.8c1.9,5.6,3.8,11.3,6.6,17
			c0.2,0.5,0.5,1.4,0.8,2.3c0.1,0.4,0.2,0.8,0.3,1.1c1.5,4.9,4.5,9.3,9,13.2c-6.7,4.7-11.8,10-15.6,16.1c-3.8,6.2-6.8,12.2-9.2,18.3
			c-1.5,3.7-2.3,7.5-2.5,11.4c-0.6,9.9-1.1,20.4,0,31.3c0.1,1.1,0.2,2.3,0.3,3.5c0.8,8.8,1.7,18,4.9,27.2c0.9,2.5,1.5,5.1,2.3,7.9
			c0.3,1.1,0.6,2.3,0.9,3.4c4.5,16.5,10.9,32.9,19.6,50c0.3,0.6,0.6,1.2,0.9,1.7c-0.8,0.1-1.6,0.3-2.3,0.6c-2.7,0.9-5.4,1.9-8.1,2.8
			c-8.4,2.9-17.1,5.9-25.7,8.6c-11.4,3.6-22.4,8-33.1,12.3c-2.8,1.1-5.6,2.2-8.3,3.4c-22.8,9.1-44.8,20.2-66.1,31l-2,1
			c-18.4,9.3-34.7,18.2-49.9,27c-6.9,4-13.7,8.2-20.3,12.3c-6.6,4.1-13.5,8.3-20.2,12.3c-6.6,3.9-13,8-19.1,12.1
			c-5.2,3.4-10.5,6.9-15.8,10.1c-7.5,4.5-15.5,9.4-23.2,15c-0.8,0.6-1.6,1.2-2.3,1.7c-0.7,0.5-1.3,1-1.9,1.4s-1.2,0.9-1.7,1.4
			c-0.5-2.3-1.2-4.4-1.9-6c-7-17-16.5-39.3-27.3-61.5c-10-20.5-20.4-40.8-28.4-56.3c-11.7-22.7-23.7-45.8-35.3-68.1
			c-4.4-8.4-8.7-16.8-13.1-25.2c-0.5-1-1.1-1.9-1.5-2.7c-0.2-0.3-0.3-0.6-0.5-0.8l-3-5.2L289,855c3.9-10.2,8-21.5,11.4-33.2l0.6-2.1
			c2.3-7.9,4.7-16.1,5.6-24.9c0.4-3.5,0.6-7,0.9-10.4c0.1-1.7,0.3-3.4,0.4-5c0.1-0.7,0.1-1.3,0.2-2c0.1-1.5,0.2-2.9,0.4-4.2
			c1-6.8,0.2-13.4-2.3-19.7c-0.9-2.2-1.8-4.3-2.8-6.4c-0.3-0.6-0.6-1.3-0.9-1.9c-0.4-1-0.9-1.9-1.3-2.8c-0.7-1.5-1.4-2.8-1.7-3.9
			c-1.7-5.4-4.8-9.2-7.4-11.9c-0.5-0.6-1.1-1.1-1.6-1.6s-1-1-1.4-1.4c-6.8-7.3-15.7-11.7-27.1-13.3c-3.7-0.5-7.1-0.8-10.4-0.8
			c-2.5,0-5.1,0.2-7.5,0.5c-5.4,0.7-10.4,2.5-15.2,5.6c-1.8-5.4-2.5-11.3-3.3-17.6c-0.1-0.9-0.2-1.8-0.3-2.7
			c-0.4-3.2-0.8-6.4-1.2-9.6c-0.8-6.6-1.6-13.3-2.6-20c-1.8-12.4-5.2-23.2-10.5-32.9c-0.8-1.5-1.5-3-2.3-4.6
			c-1.2-2.3-2.4-4.7-3.8-7.2c-3.9-6.8-11.4-11-19.5-11c-5.7,0-11,2.1-15.1,5.9c-2.7,2.5-4.7,5.4-6.2,7.5
			c-4.7,6.8-8.6,14.4-11.6,22.6c-6.1,16.6-10.2,31.7-12.6,46.2c-0.5,3.2-0.9,6.5-1.2,9.4c-0.4-0.3-0.9-0.6-1.3-0.8
			c-4.5-2.7-9.3-4-14.5-4c-3.6,0-7.5,0.7-11.4,2c-4.8,1.7-9.2,4.4-13.3,8.4c-3.9,3.8-7.4,8.4-10.6,14c-5.2,9.1-9.6,19.4-13.9,32.2
			c-1.7,5.1-2.5,10.4-2.5,15.9v7.7c0,12.1,0,24.7,0.1,37c0.1,6.6,1.2,12.8,2.2,18.7c0.3,1.7,0.6,3.4,0.9,5.1
			c3.1,19.2,11.3,35.8,18.7,49.9c0.4,0.8,0.8,1.5,1.2,2.3c0.2,0.3,0.3,0.6,0.5,0.9c0.1,0.2,0.2,0.3,0.2,0.4
			c-0.8,6-0.2,11.7,0.3,16.8l0.1,1.2c1.2,11.6,2.5,23.3,3.7,34.6c0.6,5.8,1.3,11.6,1.9,17.4c0.6,5.9,1.3,11.8,1.9,17.7
			c1.2,11.9,2.5,24.2,4,36.3c1.6,13.4,3.6,27.4,5.8,41.7c2.5,15.7,4.9,29.4,7.5,41.9c2.6,12.9,5.6,25.9,8.5,38.4l1.5,6.3
			c0.6,2.8,1.5,5.3,2.3,7.8c0.4,1.2,0.8,2.3,1.1,3.4c0.4,1.2,0.7,2.5,1,3.9v0.2c0.2,0.7,0.3,1.3,0.4,2c0.2,0.7,0.3,1.5,0.5,2.2
			c0.7,3.1,1.7,5.9,2.6,8.7c0.8,2.4,1.6,4.7,2.1,6.9c1.5,6.4,3.8,12.3,6.1,18l0.5,1.4c2.8,7.2,5.8,14.5,8.6,21.5
			c1,2.4,1.9,4.8,2.9,7.1c6.9,17,15.6,33.3,23.2,47c18.7,33.8,41.2,63.2,66.7,87.6c0.9,0.8,1.7,1.7,2.6,2.5c2.9,2.8,6,5.7,9.1,8.6
			c1.9,1.7,3.7,3.1,5.5,4.4c0.6,0.5,1.3,0.9,1.9,1.4c0.3,0.2,0.5,0.4,0.7,0.5c4.3,4.5,9.3,7.4,13.7,10c0.4,0.3,0.9,0.5,1.3,0.8
			c8.4,4.9,16.8,9.5,25.4,14.1c13,7.1,26.7,11.1,40.7,15.1c16.9,4.7,34.5,7.8,52.3,9.3c2,0.2,4.1,0.4,6.3,0.8
			c9.1,1.5,18,1.7,26.6,1.8h2.7c3.8,0.1,7.8,0.1,11.7,0.1c12.4,0,25.5-0.3,40.2-0.9c6.4-0.3,12.7-1,18.9-1.6
			c1.4-0.2,2.8-0.3,4.2-0.5c7.3-0.8,14.9-1.7,22.6-2.7c2.4-0.3,4.7-0.7,6.9-1.1c2.5-0.4,4.8-0.8,7.1-1.1c16.5-1.9,32.8-5.2,48.6-8.4
			c2.9-0.6,5.9-1.2,8.8-1.8c14.2-2.8,28.5-6.1,42.4-9.2c6.6-1.5,13.4-3,20.1-4.5c4.7-1,9.4-2.1,14-3.1c8-1.8,16.2-3.6,24.3-5.4
			c3.1-0.7,5.9-1.9,8.6-3.6c1.2-0.8,2.5-1.2,4.3-1.3c4.6-0.4,9.1-1.3,12.8-2.2c5.8-1.4,12-2.5,18.2-3.2c3.2-0.4,6.2-1.2,8.9-1.9
			c0.5-0.1,0.9-0.3,1.4-0.4c2.3-0.6,3.9-1.7,4.8-2.3c0.1,0,0.1-0.1,0.2-0.1l1.3-0.8c4.9,12.2,9.2,25.3,13.1,39.6
			c4,14.8,6.7,26.2,8.9,37.1c2.3,11.3,4.7,24.7,6.1,38.3c0.1,1.5,0.4,2.8,0.6,4.1c0.1,0.8,0.3,1.6,0.4,2.3c0.2,1.3,0.3,2.7,0.5,4
			c0.5,3.9,1,7.6,1.3,11.3c1.7,19.7,2.4,37.1,2.3,53.2c-0.1,14-0.1,28.2-0.2,42c0,17.9-0.1,36.3-0.3,54.4c-0.1,11-0.5,22.3-0.9,33.2
			c-0.2,5.4-0.4,11-0.5,16.5c-0.1,5.2-0.3,10.4-0.5,15.6c-0.4,13.3-0.8,27.1-1,40.6c-0.5,27.3-0.8,55.1-1,85
			c-0.1,7.7,0.1,15.5,0.3,23c0.1,3.8,0.2,7.8,0.2,11.7c0,0.3-0.1,0.9-0.1,1.4s-0.1,1-0.1,1.4l-0.8,10.8h10.8h1216.9h20.2l-12.2-16.1
			c0,0,0-0.1-0.1-0.1c-0.9-1.3-2-2.3-3-3c0-0.2-0.1-0.4-0.1-0.7c-0.4-2.3-0.7-4.6-1.1-6.8c-1-5.9-1.9-11.9-3-17.9
			c-2.3-12.7-4.8-25.2-7.6-37.1c-1-4.1-1.7-8.3-2.6-12.7c-0.7-3.9-1.5-8-2.4-12.1c-3.6-16-7.3-31.7-10.1-43.6
			c-3.9-16.2-8.5-35.4-13.4-55.1c-1.6-6.3-3.3-12.5-4.9-18.6c-1.1-4-2.2-8.1-3.2-12.1c-0.3-1.3-0.6-2.7-0.9-4.2
			c-0.2-1.3-0.5-2.5-0.8-3.9c-0.4-1.6-0.8-3.1-1.2-4.5c-0.1-0.4-0.2-0.8-0.3-1.2c-0.3-1-0.6-2-0.9-3.1c-0.6-1.9-1.1-3.6-1.6-5.4
			c-0.2-0.8-0.4-1.6-0.6-2.4c-0.6-2.8-1.4-6-2.9-9.2c-1.8-9.1-4.4-17.8-6.9-26.3c-1.2-3.9-2.4-8-3.5-12c-1.5-5.5-3.1-10.9-4.7-16.2
			c-0.6-1.9-1.1-3.7-1.7-5.6c-1.1-3.8-2.2-7.6-3.4-11.4c-2.9-10-6-20.4-9.2-30.6c-1.6-5-3.1-10.2-4.6-15.2l-1-3.4
			c-1.5-5-3.2-9.9-4.8-14.6c-0.7-2.1-1.5-4.2-2.2-6.2c-0.1-0.4-0.3-0.9-0.4-1.5l-0.1-0.3c-0.4-1.3-0.7-2.6-1-3.8
			c-0.5-2-1.1-3.9-1.6-5.9c-0.5-1.7-1-3.4-1.4-5.1c-0.4-1.3-0.8-2.7-1.1-4c0-0.1,0-0.2-0.1-0.3c-0.2-0.8-0.4-2-1.1-3.5
			c-2.6-5.8-4.4-12-6.4-18.6c-0.9-3.1-1.9-6.3-2.9-9.5c-1.5-4.5-2.9-9.1-4.4-13.6c-2.5-7.8-5.1-15.9-7.8-23.9
			c-1.6-4.6-2.9-9.2-4.4-14c-1.3-4.4-2.6-8.9-4.1-13.3c-0.5-1.6-1.1-3.2-1.7-4.8c-1.2-3.5-2.4-6.8-3.2-10.1
			c-1.3-4.8-2.9-9.5-4.4-13.9c-0.8-2.3-1.5-4.4-2.2-6.6c-10.1-31.3-20.2-62.3-30-92.1c-4.3-13.2-9.1-26-13.5-37.8
			c-1.1-2.9-2.2-5.7-3.3-8.5c-2-5.1-4-10.3-5.8-15.4c-1.1-3.1-2.3-6-3.5-8.8c-0.4-1-0.8-1.9-1.2-2.9c-0.3-0.8-0.7-1.6-1.1-2.4
			c-0.9-2-1.7-3.7-1.9-5.1c-0.3-1.9-1-3.4-1.3-4.1l-0.1-0.2c-1.1-2.5-2.2-5.1-3.3-7.7c-2.5-5.9-5.1-12-7.8-17.9
			c-7.5-16.5-13.5-29.1-19.2-41c-13-26.9-26.5-52.7-40.1-76.6c-21.6-37.9-42.6-71.8-64.1-103.4c-27-39.7-52.5-74.5-78.1-106.6
			l-1.4-1.8c-2.9-3.6-5.9-7.4-9-11.1c-1.5-1.7-4.2-5-8.7-6.8c-0.4-1-0.8-2-1-2.9c-1.5-6.3-2.9-12.7-4.2-18.9
			c-0.5-2.1-0.9-4.2-1.4-6.3c-0.1-0.4-0.2-0.8-0.2-1.2c-0.2-1.1-0.4-2.4-0.9-3.8c-1.3-4.4-2.2-9-3.1-13.9c-1-5.4-2-10.9-3.8-16.5
			c-0.9-2.9-1.8-6-2.7-8.9c-1-3.4-2.1-6.9-3.2-10.4c-1-3-2.3-5.6-3.4-7.5c-1.4-2.5-3.5-4.4-5.8-5.4c2.9-4.3,5.6-8.8,8.3-13.6
			c7.2-13.1,13.2-25,18.3-36.3c0.9-2.1,1.9-4.2,2.8-6.2c0.4-1,0.9-1.9,1.3-2.9l1.1-2.4c3.7-8,7.5-16.2,10.5-24.9
			c1-2.9,2.2-5.8,3.5-8.9c0.9-2,1.8-4.2,2.6-6.3c0.7-1.9,1.3-3.7,1.8-5.3c0.2-0.7,0.4-1.4,0.6-2.1c0.1-0.4,0.3-0.8,0.4-1.3
			c0.2-0.4,0.3-0.9,0.5-1.3l0.3-0.9c0.5-1.5,1-3.1,1.5-4.7c0.2-0.6,0.3-1.2,0.4-1.6c1.2-2.8,1.8-5.6,2.3-7.9
			c0.3-1.2,0.5-2.4,0.8-3.3c4.2-13.3,6.9-26.8,9.2-39.5c2.5-13.7,4.3-27.3,5.3-40.5c0.6-8,0.5-15.9,0.5-23.6c0-1.4,0-2.7,0-4.1
			c-0.1-13.9-2-28.3-6.2-45.4c-3.1-13.1-8.3-24.8-12.9-34.6c-23.1-49.1-46.2-91.3-70.6-129c-24.9-38.3-50.2-72.4-77.4-104.2
			c-8.7-10.2-18.1-20-27.8-29.3c-13.7-13-30.2-22.4-49.1-27.9c-6.4-1.9-13-2.8-19.7-2.9c-2,0-4,0-6.1,0c-6.7,0-13.9,0.1-22.1,0.3
			c-8,0.2-16,2.1-25.6,6.1c-1.1-3.2-3.4-5.9-6.6-7.7l-0.2-0.1c-0.7-0.4-1.4-0.8-2.2-1.1c-11.7-5.6-24.6-9.7-38.1-12.1
			c-18.5-3.3-36.9-4.4-50.9-5C1200.6,59,1186.4,58.7,1169,58.7L1169,58.7z"/>
	</g>
	<path class="st1" d="M2117,1736.2c-1,1.3-2,2.5-3,3.7c-20.4,25.7-43.7,48.7-69.2,69.3c-7.1,5.7-14.7,10.8-22.8,14.9
		c-1.6,0.8-3,1.8-4.6,2.6c-2.3,1.2-3.2,2.8-2.6,5.5c1.4,7,2.6,14.1,4.1,21.1c1.1,5.3,1.3,7.5,4,15.7c1.5,8,0.1,0.6,0.2,0.9
		c0.8,4.4,1.7,8.8,2.3,13.2c0.6,3.9,0.9,7.9,1.4,11.9c31.3,0,62.7,0,94,0c22.6,0,33.7,9.3,33.7-45.4
		C2153.8,1822.4,2118.3,1734.5,2117,1736.2z"/>
</g>
<g id="eyes_x2C__noise">
	<g>
		<g>
			<path class="st2" d="M1042.8,431.4c-3.7,0-7.6-0.4-11.7-1.3c-9.5-2-17.3-6.9-23.8-15.1c-5.6-7.1-9.4-15.7-11.2-25.6
				c-1.1-6.2-0.4-13.1,2.1-20.2c1.6-4.5,3.7-9,6.7-13.8c0.6-1,1.4-2.2,2.2-3.1c3.3-3.4,5.9-6,8.4-8.3c1.4-1.3,3.1-2.4,4.7-3.5
				c3.8-2.5,7.7-3.7,12.1-3.7c0.5,0,1.1,0,1.7,0.1c0.9,0.1,1.8,0.1,2.6,0.2c4.6,0.3,8.9,0.5,13.1,1.7c5.1,1.5,10.4,3.2,14.5,7
				l0.5,0.4c2.7,2.5,5.5,5.1,8.1,7.8c6.3,6.8,10.1,15.3,11.3,25.1c0.3,2.2,0.4,4.6,0.6,6.8c0.1,1.1,0.2,2.1,0.3,3.2
				c0.5,9.2-2.6,17.9-9.7,27.5c-4.6,6.2-11,10.7-19.5,13.6c-1.9,0.7-4.1,0.9-6.3,1.1c-0.6,0.1-1.1,0.1-1.7,0.2
				C1046.1,431.4,1044.4,431.4,1042.8,431.4z"/>
			<path d="M1032.4,334.7c-4.8,0-9.1,1.4-13.2,4.1c-1.7,1.1-3.5,2.3-5,3.7c-2.9,2.7-5.8,5.5-8.5,8.4c-1,1-1.8,2.3-2.5,3.5
				c-2.7,4.5-5.1,9.2-6.8,14.2c-2.4,6.9-3.4,14.1-2.1,21.2c1.7,9.7,5.4,18.7,11.6,26.5c6.5,8.2,14.6,13.7,24.9,15.8
				c4,0.8,8,1.3,12.1,1.3c1.7,0,3.3-0.1,5-0.3c2.8-0.3,5.8-0.4,8.5-1.3c8.2-2.8,15.3-7.3,20.5-14.3c6.3-8.5,10.6-17.8,10.1-28.9
				c-0.3-3.3-0.5-6.7-0.9-10c-1.2-10-4.9-18.8-11.8-26.2c-2.7-2.9-5.7-5.6-8.6-8.3c-4.4-4-9.8-5.8-15.3-7.4
				c-5.2-1.5-10.7-1.6-16.1-2C1033.5,334.7,1032.9,334.7,1032.4,334.7L1032.4,334.7z M1035.5,427c-4.8,0-9.2-1.6-13.4-4
				c-10.5-5.9-16.6-15.1-20.5-26.1c-0.9-2.7-1.2-5.6-1.5-8.5c-0.6-5.4,0-10.9,0.9-16.2c1-5.9,4.2-11,7.7-15.8c2.3-3.1,5-5.8,7.5-8.7
				c2.6-3,6.2-4.4,9.4-6.4c0.9-0.5,2.1-0.6,3.2-0.7c1.4,0,2.8-0.1,4.2-0.1c4.8,0,9.6,0.3,14.4,1c0.8,0.1,1.6,0.2,2.3,0.5
				c12.4,5.3,21.8,13.6,27.3,26.2c4.1,9.4,4.4,19.2,3.4,29.1c-0.3,2.8-1.3,5.3-2.6,7.7c-3.9,7.1-9.3,12.9-15.8,17.7
				c-3.6,2.6-7.7,4.1-12.2,4.1c-0.1,0-0.2,0-0.4,0c-1,0-1.9,0-2.9,0c-1.6,0-3.2,0-4.8,0c0,0,0,0,0,0.1c-1.1,0-2.2,0-3.3,0
				c-0.7,0-1.3,0-2,0C1036.2,427,1035.8,427,1035.5,427L1035.5,427z"/>
		</g>
		<g>
			<path class="st2" d="M881.3,412c-2.8,0-5.6-0.2-8.4-0.6c-2.4-0.3-4.8-1.2-7.2-2.5c-7.3-4.2-13-10.1-16.7-17.4
				c-1.7-3.3-3.1-6.8-4.5-10.2l-0.1-0.1c-1.8-4.4-1.7-8.6-1.3-11.3c0-0.1,0-0.1,0-0.2c0.1-0.8,0.1-1.6,0.2-2.3
				c0.1-1.4,0.2-2.7,0.3-3.9c0.3-3.6,1-6.4,2.2-8.9c0.7-1.5,1.4-3.1,2.1-4.7c1-2.2,2-4.5,3-6.7c1.2-2.4,2.7-4.5,4.5-6
				c0.7-0.6,1.4-1.2,2.1-1.7c2.4-2,4.9-4.2,7.5-6c5.2-3.6,11.2-5.6,17.2-5.6c8.2,0,16,3.6,22.1,10.2c5.9,6.4,9.9,14.3,12.4,24.2
				c2.8,11.5,1.8,22.4-3,32.4c-2.9,5.9-7.1,11.1-12.9,15.7c-4,3.2-8.9,5-15,5.4C884.3,411.9,882.8,412,881.3,412z"/>
			<path d="M882.3,321.4c-6.5,0-13,2.1-18.7,6c-3.4,2.4-6.5,5.2-9.7,7.8c-2.2,1.9-3.9,4.2-5.2,6.8c-1.8,3.8-3.4,7.6-5.2,11.3
				c-1.4,3.1-2.1,6.4-2.4,9.7c-0.2,1.9-0.3,3.8-0.5,6.3c-0.6,3.9-0.3,8.4,1.5,12.6c1.4,3.6,2.9,7.1,4.6,10.5
				c4.1,7.9,10,14,17.7,18.4c2.5,1.4,5.1,2.5,8.1,2.9c2.9,0.4,5.8,0.6,8.7,0.6c1.6,0,3.1-0.1,4.7-0.2c6-0.4,11.6-2.1,16.4-6
				c5.7-4.6,10.4-10,13.6-16.6c5.3-11,6.1-22.4,3.2-34.1c-2.3-9.5-6.3-18.1-13-25.3C899.4,324.9,890.8,321.4,882.3,321.4
				L882.3,321.4z M880.9,409.4c-5,0-9.7-1.4-14.3-4.3c-7.9-5-13.7-11.8-17.7-20.3c-1.2-2.5-1.6-5.2-1.6-7.9c0-5.7,0.2-11.5,0.5-17.2
				c0.1-1.6,0.6-3.1,1.2-4.6c1.1-2.8,2.4-5.6,3.7-8.3c4.8-9.5,12.4-15.7,22.8-18.1c2.1-0.5,4.1-0.7,6.2-0.7c3.8,0,7.6,0.7,11.3,1.8
				c1.9,0.6,3.7,1.8,5.3,3.2c3.8,3.2,6.9,7.1,9.3,11.5c1.8,3.3,3.4,6.9,4.9,10.4c1.9,4.2,1.8,8.7,2,13.2c0.1,1,0,1.9,0,2.9
				c0,0,0,0,0.1,0c-0.1,1.5-0.1,3-0.2,4.6c-0.7,13.9-12,28.9-25.4,32.7C886.2,409,883.5,409.4,880.9,409.4L880.9,409.4z"/>
		</g>
		<path d="M1012.4,378L1012.4,378c0.2-8.2,6.2-15.6,14.1-17.4c2.6-0.6,5.1-0.3,7.4,1.1c3.7,2.2,6.6,5.1,7.9,9.3
			c1,3.4,1.7,6.8,2.4,10.3c0.2,0.9,0,1.9-0.2,2.8c-0.6,3.2-1.8,6.1-3.7,8.8c-0.9,1.3-2,2.5-3.3,3.4c-4.3,2.8-9.3,3.1-13.8,1.6
			c-4.4-1.5-7.9-5-9-9.9C1013.4,384.6,1013,381.3,1012.4,378z"/>
		<path d="M875.5,383.5C875.5,383.5,875.4,383.5,875.5,383.5c-9.4,0.8-15-6.3-15.7-13.3c-0.5-4.5-0.1-8.9,2.1-13
			c3.6-6.6,11.8-9.8,18.4-6.7c5.5,2.6,9.1,6.9,10,13.1c0.6,4.2-0.1,8.3-2.4,11.9c-0.6,0.9-1.3,1.8-1.9,2.8
			C883.3,382.3,879.8,384.3,875.5,383.5z"/>
	</g>
	<g>
		<path class="st3" d="M818.1,588.3c-3.6,0-6.9-0.9-9.9-2.5c-3.3-1.8-6.7-3.9-9.6-6.6c-13.8-12.6-22.6-27.9-26.2-45.6
			c-1.2-6.1-1.2-12.8,0.1-20.4c0.5-2.9,1.8-5.4,3.8-7.6c5.3-5.7,11.2-10.1,17.7-13l0.5-0.2c1-0.5,2.3-1.1,3.9-1.4
			c3.9-0.6,7.7-1.8,11.7-3.1c2.6-0.8,5.3-1.7,8.1-2.4c10.3-2.6,20.6-3,30.2-3c10.8,0,21.1,0.8,30.9,2.3c5,0.8,9.9,1.9,14.7,3h0.2
			c5.5,1.2,10.1,4.3,13.5,8.8c2.2,2.9,3.9,5.4,5.4,7.9c2.9,4.7,3.1,10,0.6,14.9c-1.3,2.6-2.8,5.4-4.8,7.9c-3,3.6-6.5,7.7-10.5,11.4
			c-15.4,14.2-31.9,26.8-49,37.6c-5.8,3.7-11.2,6.5-16.5,8.6c-4.1,1.6-7.6,2.6-11.2,3.2C820.5,588.2,819.3,588.3,818.1,588.3z"/>
		<path d="M848.5,487.5c10.1,0,20.1,0.7,30.1,2.3c4.9,0.8,9.7,1.8,14.5,2.9c4.4,1,7.9,3.3,10.6,6.9c1.8,2.4,3.6,4.9,5.1,7.5
			c2,3.2,2,6.7,0.4,10.1c-1.2,2.4-2.5,4.9-4.2,6.9c-3.2,3.8-6.5,7.5-10.1,10.9c-15,13.8-31,26.2-48.2,37c-5,3.2-10.2,6-15.7,8.2
			c-3.3,1.3-6.6,2.3-10.1,2.9c-0.9,0.1-1.9,0.2-2.8,0.2c-2.6,0-5.1-0.6-7.5-1.9c-3-1.7-6.1-3.6-8.7-5.9
			c-12.7-11.7-21.2-25.9-24.7-42.9c-1.3-6.1-0.9-12.4,0.2-18.6c0.3-2,1.2-3.6,2.5-5.1c4.6-5,9.9-9,16.1-11.9c1-0.5,2-1,3.1-1.2
			c6.9-1.1,13.5-3.8,20.3-5.5C829.1,487.9,838.7,487.5,848.5,487.5 M848.5,477.5L848.5,477.5c-10,0-20.7,0.4-31.4,3.1
			c-2.9,0.7-5.7,1.6-8.4,2.4c-3.9,1.2-7.5,2.3-11,2.9c-2.3,0.4-4.1,1.2-5.3,1.8c-0.1,0.1-0.3,0.1-0.4,0.2c-7.1,3.2-13.5,8-19.2,14.2
			c-2.7,2.9-4.4,6.3-5,10.2c-1.4,8.3-1.5,15.6-0.1,22.3c3.8,18.7,13.1,34.9,27.7,48.3c3.3,3,7,5.3,10.6,7.2
			c3.8,2.1,7.9,3.2,12.3,3.2c1.4,0,2.8-0.1,4.2-0.3c3.9-0.6,8-1.7,12.3-3.5c5.6-2.2,11.3-5.2,17.3-9c17.4-10.9,34.1-23.8,49.7-38.1
			c4.2-3.9,7.9-8.2,11-11.8c2.4-2.9,4-6,5.5-8.9c3.2-6.5,3-13.7-0.8-19.8c-1.6-2.6-3.4-5.2-5.6-8.2c-4.1-5.5-9.8-9.2-16.4-10.7h-0.2
			c-4.9-1.1-9.9-2.2-15-3C870.1,478.3,859.5,477.5,848.5,477.5L848.5,477.5L848.5,477.5z"/>
	</g>
</g>
</svg>
